<svg version="1.1" id="Layer_1" xmlns="http://www.w3.org/2000/svg" xmlns:xlink="http://www.w3.org/1999/xlink" x="0px" y="0px"
	 width="100%" viewBox="0 0 128 128" enable-background="new 0 0 128 128" xml:space="preserve">
<path fill="#000000" opacity="1.000000" stroke="none" 
	d="
M0.999999,100.000000 
	C1.000000,67.042755 1.000000,34.085506 1.000000,1.064131 
	C43.568554,1.064131 86.137230,1.064131 129.000000,1.064131 
	C129.000000,37.687038 129.000000,74.374863 128.613968,111.521011 
	C127.463989,107.813087 126.700043,103.646843 126.028351,99.532883 
	C126.120613,99.585175 126.196602,99.447334 126.196602,99.447334 
	C126.196602,99.447334 125.907234,99.494453 125.705788,99.139114 
	C125.025185,96.659134 124.546028,94.534500 124.054413,92.424889 
	C124.041969,92.439919 124.064079,92.461105 124.044518,92.058777 
	C121.131607,87.144073 118.370590,82.538872 115.294785,78.154503 
	C113.478081,75.564888 111.163185,73.324783 109.006378,70.557693 
	C108.600029,68.461784 108.259628,66.735687 107.813477,64.663223 
	C107.099258,62.220303 106.490784,60.123737 105.920334,57.747627 
	C106.816200,56.862488 107.674042,56.256893 108.564415,55.628330 
	C107.759972,54.051739 106.944969,52.454445 106.087601,50.501041 
	C105.056213,48.590652 104.067184,47.036373 103.158669,45.324600 
	C103.290642,44.914371 103.226845,44.695221 103.343773,44.185341 
	C104.474777,36.468353 102.255463,29.941751 97.881027,23.671165 
	C95.489342,20.587139 93.222038,17.822935 90.785164,14.765696 
	C88.693680,13.218472 86.771767,11.964285 84.574120,10.566191 
	C82.884590,9.981552 81.470787,9.540821 79.686401,9.078161 
	C77.236481,9.030016 75.157127,9.003800 72.970100,8.626093 
	C66.106583,4.665835 59.793003,7.654503 53.612236,9.924377 
	C51.385326,10.742205 49.736210,13.133328 47.559555,14.878454 
	C46.848660,15.253055 46.401619,15.555676 45.614132,15.932583 
	C42.519627,19.673126 39.765572,23.339384 36.753529,27.241199 
	C33.444519,34.785717 28.994009,41.637711 29.052958,50.343643 
	C27.888441,53.367020 26.814892,56.038593 25.444176,58.853798 
	C23.424618,61.334152 21.702227,63.670872 19.992119,66.005394 
	C20.004404,66.003197 20.005009,65.978249 19.696377,66.134567 
	C18.260044,68.856468 17.132341,71.422058 16.002054,74.411377 
	C16.011860,76.253731 16.024250,77.672356 16.020138,79.462921 
	C15.344785,81.052467 14.996186,82.771172 13.974951,83.403465 
	C8.735383,86.647491 5.928568,91.244720 4.793976,97.240929 
	C4.582253,98.359848 2.317362,99.090279 0.999999,100.000000 
M119.965096,19.594273 
	C118.742546,19.377304 117.141167,18.571434 116.375183,19.064192 
	C114.706390,20.137728 113.395493,21.821175 112.168671,23.430920 
	C112.065666,23.566071 113.553978,25.380524 114.555473,25.776987 
	C115.914528,26.315002 118.672905,26.708015 118.821014,26.344421 
	C119.571831,24.501251 119.672150,22.393108 119.965096,19.594273 
z"/>
<path fill="#3B2B23" opacity="1.000000" stroke="none" 
	d="
M39.000000,129.000000 
	C36.629444,129.000000 34.258884,129.000000 31.521599,128.698990 
	C31.797758,126.625298 32.440647,124.852608 33.379620,122.899841 
	C38.129162,120.371674 38.397907,116.360596 37.949268,111.612610 
	C37.947666,109.141968 37.912239,107.109688 38.145554,104.876221 
	C40.531994,103.024597 40.514889,101.368652 39.578682,98.753204 
	C38.363472,95.358345 38.466572,91.509552 37.779068,87.898636 
	C37.519470,86.535156 36.637379,85.290184 36.038975,83.664925 
	C36.041546,82.903625 36.044193,82.468597 36.429848,81.998795 
	C39.965672,79.264297 39.730488,76.441376 36.058739,72.598999 
	C36.057957,71.504364 36.061462,70.774597 36.450287,70.028229 
	C37.932766,69.090500 39.530888,68.381615 40.028660,67.206596 
	C41.281918,64.248207 42.038803,61.079544 43.318748,58.062805 
	C44.122269,58.800282 44.601696,59.470123 45.042892,60.541946 
	C45.147408,62.923294 45.290161,64.902657 45.065514,66.892166 
	C43.543728,68.092354 42.389347,69.282387 41.181282,70.955566 
	C41.649128,81.117035 38.926285,91.434891 46.580120,100.476593 
	C47.639454,98.737793 48.313652,97.631165 49.067329,96.394066 
	C49.930523,97.522736 50.524109,98.298874 50.949165,99.367905 
	C49.644604,101.423424 45.177685,101.541862 48.052734,105.655266 
	C48.516003,107.792839 48.940636,109.540512 49.375248,111.522766 
	C49.423672,112.070297 49.503864,112.372154 49.331261,112.680145 
	C48.184643,111.817268 47.332565,110.937157 46.353985,109.926384 
	C46.198769,111.064598 46.066803,112.032341 45.708038,112.754669 
	C45.068611,111.533943 44.655979,110.558624 43.886192,108.739105 
	C41.432911,114.419540 41.204166,119.243378 43.140709,124.139557 
	C43.077358,124.097717 43.225857,124.129417 42.897011,124.223244 
	C41.378773,125.878044 40.189388,127.439026 39.000000,129.000000 
z"/>
<path fill="#F5D6BA" opacity="1.000000" stroke="none" 
	d="
M80.000000,129.000000 
	C75.974815,129.000000 71.949638,129.000000 67.473663,128.619995 
	C68.031654,123.879074 71.850090,119.725075 68.413116,115.003143 
	C70.645271,115.000175 72.461861,115.000175 74.406441,115.000175 
	C73.783226,112.777184 73.406769,111.434349 73.468735,110.066887 
	C76.254410,109.998871 78.601654,109.955475 81.202438,110.136169 
	C82.656723,111.560852 83.857468,112.761436 85.282799,114.209625 
	C86.624123,116.608086 87.740860,118.758957 88.624451,121.149933 
	C85.594200,123.926697 82.797104,126.463348 80.000000,129.000000 
z"/>
<path fill="#363232" opacity="1.000000" stroke="none" 
	d="
M0.999999,100.428467 
	C2.317362,99.090279 4.582253,98.359848 4.793976,97.240929 
	C5.928568,91.244720 8.735383,86.647491 13.974951,83.403465 
	C14.996186,82.771172 15.344785,81.052467 16.340328,79.479416 
	C18.778603,78.077599 20.880182,77.031235 23.299135,76.058945 
	C23.411777,77.740723 23.207050,79.348434 22.685127,81.091904 
	C20.260609,84.792603 18.153282,88.357536 15.961720,92.257812 
	C14.924664,93.060501 13.971845,93.527847 13.024680,93.625366 
	C13.774117,91.014297 14.517896,88.773056 15.423567,86.043991 
	C10.689327,87.778107 8.413175,90.427376 9.335215,95.423088 
	C10.684686,95.166100 11.800441,94.953621 12.899694,95.098877 
	C12.259708,96.974457 11.636224,98.492294 11.004450,100.255829 
	C10.996161,100.501534 10.974634,100.992737 10.632317,101.038582 
	C8.529370,102.053513 6.768742,103.022591 4.789839,104.227173 
	C3.381043,104.975128 2.190522,105.487564 1.000000,106.000000 
	C1.000000,104.285645 1.000000,102.571281 0.999999,100.428467 
z"/>
<path fill="#F7D9BE" opacity="1.000000" stroke="none" 
	d="
M67.997559,115.006104 
	C71.850090,119.725075 68.031654,123.879074 67.011444,128.619995 
	C62.975456,129.000000 58.950912,129.000000 54.463249,128.571213 
	C54.504890,125.794945 54.230919,122.578163 55.677624,121.282204 
	C58.626507,118.640602 62.502697,117.034172 66.330368,115.001396 
	C67.108437,115.003052 67.553001,115.004578 67.997559,115.006104 
z"/>
<path fill="#322F2F" opacity="1.000000" stroke="none" 
	d="
M1.000000,106.428467 
	C2.190522,105.487564 3.381043,104.975128 5.157684,104.228821 
	C7.098841,103.994949 8.453877,103.994949 9.813794,103.994949 
	C9.813794,104.997238 9.812713,105.481911 9.813972,105.966576 
	C9.821309,108.790512 9.829196,111.614456 9.836897,114.438393 
	C11.941167,113.643669 14.045436,112.848946 16.116379,112.414406 
	C16.008247,113.492073 15.933442,114.209564 15.786151,115.089813 
	C15.713667,115.252571 15.716698,115.608910 15.422830,115.786728 
	C13.430489,118.700249 11.732017,121.435944 9.822325,123.927841 
	C8.467069,123.314857 6.306375,122.681313 6.323832,122.614182 
	C7.661581,117.469757 2.369183,115.700394 1.000000,112.000000 
	C1.000000,110.285645 1.000000,108.571281 1.000000,106.428467 
z"/>
<path fill="#4F4743" opacity="1.000000" stroke="none" 
	d="
M124.066864,92.409859 
	C124.546028,94.534500 125.025185,96.659134 125.719612,99.133453 
	C125.934883,99.483131 125.936096,99.480591 125.936096,99.480591 
	C126.700043,103.646843 127.463989,107.813087 128.613968,111.989670 
	C129.000000,114.700012 129.000000,117.400032 128.668793,120.542770 
	C127.896080,120.988350 127.454559,120.991203 127.007126,120.996880 
	C127.001221,120.999695 127.006287,120.989647 127.007164,120.609589 
	C126.012962,114.927628 122.496689,111.930328 117.499496,109.879181 
	C116.473854,108.291634 115.676979,106.902504 114.912689,105.013153 
	C115.028786,103.511986 115.112305,102.511040 115.481194,101.714264 
	C116.829002,102.215965 117.891434,102.513489 118.968117,103.196640 
	C119.939873,105.507729 120.897377,107.433189 122.265434,110.184235 
	C123.308731,108.399460 124.476456,107.013733 124.239838,106.705276 
	C122.907326,104.968216 121.237129,103.490204 119.770523,101.553146 
	C119.674812,100.226189 119.490662,99.269936 119.615639,98.132942 
	C120.282455,97.354431 120.640152,96.756653 121.324402,96.024239 
	C122.456261,94.729691 123.261566,93.569771 124.066864,92.409859 
z"/>
<path fill="#F5D6BA" opacity="1.000000" stroke="none" 
	d="
M65.996849,115.001266 
	C62.502697,117.034172 58.626507,118.640602 55.677624,121.282204 
	C54.230919,122.578163 54.504890,125.794945 54.000069,128.571213 
	C52.933331,129.000000 51.866661,129.000000 50.403603,128.601532 
	C50.977489,125.241257 51.150333,121.491890 53.110226,119.507446 
	C55.856007,116.727272 55.593006,114.149849 55.404221,111.075607 
	C57.851173,111.047920 59.922001,111.023369 62.258308,110.773170 
	C63.944138,109.760178 65.335793,108.491447 66.797890,108.404282 
	C67.452919,108.365227 68.249115,110.693977 68.988312,111.971077 
	C68.995377,111.993935 68.949448,111.981850 68.619110,112.035454 
	C67.524796,113.059792 66.760818,114.030533 65.996849,115.001266 
z"/>
<path fill="#F0CDB0" opacity="1.000000" stroke="none" 
	d="
M55.028095,111.078735 
	C55.593006,114.149849 55.856007,116.727272 53.110226,119.507446 
	C51.150333,121.491890 50.977489,125.241257 50.003605,128.601532 
	C47.629444,129.000000 45.258884,129.000000 42.475101,128.634338 
	C42.449867,126.888916 42.837860,125.509163 43.225857,124.129417 
	C43.225857,124.129417 43.077358,124.097717 43.326866,124.134796 
	C43.576374,124.171883 43.903042,123.992020 44.260262,123.945564 
	C49.232666,121.466721 50.814960,117.682480 49.625805,112.662918 
	C49.503864,112.372154 49.423672,112.070297 49.670502,111.296677 
	C50.635315,110.575974 51.314857,110.315956 52.228058,110.287491 
	C53.317173,110.705605 54.172634,110.892174 55.028095,111.078735 
z"/>
<path fill="#A6AE99" opacity="1.000000" stroke="none" 
	d="
M80.467606,129.000000 
	C82.797104,126.463348 85.594200,123.926697 88.869720,121.003922 
	C89.761078,119.790619 90.174011,118.963448 90.830841,118.395477 
	C95.469009,120.717529 97.110069,124.357285 97.000000,129.000000 
	C91.645073,129.000000 86.290138,129.000000 80.467606,129.000000 
z"/>
<path fill="#A4B7A8" opacity="1.000000" stroke="none" 
	d="
M28.000000,129.000000 
	C24.637899,129.000000 21.275797,129.000000 17.468807,128.594574 
	C17.688482,123.798409 18.353048,119.407677 19.215563,114.790833 
	C20.267574,114.041023 21.121637,113.517326 22.356565,113.113014 
	C23.157072,115.008247 23.691757,116.766304 23.969782,118.564064 
	C24.402374,121.361275 24.660519,124.185471 25.338034,127.012543 
	C26.455647,127.684563 27.227823,128.342285 28.000000,129.000000 
z"/>
<path fill="#A1AD9F" opacity="1.000000" stroke="none" 
	d="
M114.880104,105.513382 
	C115.676979,106.902504 116.473854,108.291634 117.598907,110.242676 
	C118.956543,113.868652 119.986015,116.932701 121.012451,120.368019 
	C122.006279,123.492859 123.003136,126.246429 124.000000,129.000000 
	C122.285645,129.000000 120.571281,129.000000 118.431152,128.599274 
	C118.005913,127.129494 118.006439,126.060448 118.013298,124.591232 
	C117.038719,121.783852 116.057816,119.376625 115.100784,116.630234 
	C114.104828,113.162636 113.085007,110.034195 111.891304,106.588455 
	C111.622162,105.340164 111.526894,104.409180 111.752869,103.569077 
	C113.009445,104.277763 113.944771,104.895576 114.880104,105.513382 
z"/>
<path fill="#4E3E33" opacity="1.000000" stroke="none" 
	d="
M97.375000,129.000000 
	C97.110069,124.357285 95.469009,120.717529 90.842133,118.045532 
	C88.996887,114.326469 87.384232,111.216560 86.083542,108.043381 
	C87.938744,107.659782 89.481972,107.339439 91.102654,107.362724 
	C91.816864,109.139099 92.453613,110.571854 93.139297,112.353447 
	C95.423683,116.515785 97.659149,120.329277 99.936279,124.544464 
	C99.985298,126.297447 99.992645,127.648720 100.000000,129.000000 
	C99.250000,129.000000 98.500000,129.000000 97.375000,129.000000 
z"/>
<path fill="#3A3839" opacity="1.000000" stroke="none" 
	d="
M1.000000,112.470459 
	C2.369183,115.700394 7.661581,117.469757 6.323832,122.614182 
	C6.306375,122.681313 8.467069,123.314857 9.674965,124.250244 
	C9.492551,126.210976 9.246275,127.605492 9.000000,129.000000 
	C6.381323,129.000000 3.762647,129.000000 1.000000,129.000000 
	C1.000000,123.647537 1.000000,118.294228 1.000000,112.470459 
z"/>
<path fill="#B2C1AE" opacity="1.000000" stroke="none" 
	d="
M100.375000,129.000000 
	C99.992645,127.648720 99.985298,126.297447 100.092262,124.185768 
	C99.795441,119.946648 99.384315,116.467918 98.985298,112.622070 
	C99.635971,111.128708 100.274544,110.002464 100.936516,109.246681 
	C101.293541,110.723503 101.627167,111.829865 101.975067,113.331345 
	C101.721237,116.718185 103.615105,117.142349 105.880692,117.451508 
	C104.880402,121.566200 103.940201,125.283096 103.000000,129.000000 
	C102.250000,129.000000 101.500000,129.000000 100.375000,129.000000 
z"/>
<path fill="#BDC4B0" opacity="1.000000" stroke="none" 
	d="
M115.076920,116.969406 
	C116.057816,119.376625 117.038719,121.783852 117.593185,124.593018 
	C114.286819,124.836487 111.483795,124.777237 112.000000,129.000000 
	C110.611107,129.000000 109.222221,129.000000 107.470734,128.632446 
	C108.409523,125.511635 109.710907,122.758362 111.303055,120.058334 
	C112.327919,120.739479 113.062019,121.367371 114.072411,122.231575 
	C114.463676,120.181900 114.770294,118.575653 115.076920,116.969406 
z"/>
<path fill="#8EA191" opacity="1.000000" stroke="none" 
	d="
M28.375000,129.000000 
	C27.227823,128.342285 26.455647,127.684563 25.559361,126.735306 
	C27.020531,122.608704 28.605814,118.773636 30.541985,115.025970 
	C31.623095,117.768890 32.353313,120.424408 33.083534,123.079926 
	C32.440647,124.852608 31.797758,126.625298 31.077435,128.698990 
	C30.250000,129.000000 29.500000,129.000000 28.375000,129.000000 
z"/>
<path fill="#87A199" opacity="1.000000" stroke="none" 
	d="
M19.017612,115.016953 
	C18.353048,119.407677 17.688482,123.798409 17.011959,128.594574 
	C15.933331,129.000000 14.866661,129.000000 13.392778,128.597321 
	C13.895944,123.999405 14.806321,119.804161 15.716698,115.608910 
	C15.716698,115.608910 15.713667,115.252571 16.181627,115.117569 
	C17.438929,114.994026 18.228271,115.005486 19.017612,115.016953 
z"/>
<path fill="#CED2BE" opacity="1.000000" stroke="none" 
	d="
M111.012299,120.005081 
	C109.710907,122.758362 108.409523,125.511635 107.054062,128.632446 
	C105.933327,129.000000 104.866661,129.000000 103.399994,129.000000 
	C103.940201,125.283096 104.880402,121.566200 106.075165,117.220360 
	C106.884232,116.397995 107.438744,116.204567 108.200821,116.261024 
	C109.276360,117.675636 110.144325,118.840363 111.012299,120.005081 
z"/>
<path fill="#464443" opacity="1.000000" stroke="none" 
	d="
M124.499962,129.000000 
	C123.003136,126.246429 122.006279,123.492859 121.397430,120.370743 
	C123.525719,120.331337 125.266006,120.660492 127.006287,120.989647 
	C127.006287,120.989647 127.001221,120.999695 126.877380,121.288704 
	C127.502357,122.385139 128.251175,123.192574 129.000000,124.000000 
	C129.000000,125.578957 129.000000,127.157921 129.000000,129.000000 
	C127.670563,129.000000 126.335243,129.000000 124.499962,129.000000 
z"/>
<path fill="#7A847C" opacity="1.000000" stroke="none" 
	d="
M15.422831,115.786728 
	C14.806321,119.804161 13.895944,123.999405 12.992783,128.597321 
	C11.933331,129.000000 10.866661,129.000000 9.399996,129.000000 
	C9.246275,127.605492 9.492551,126.210976 9.886185,124.494057 
	C11.732017,121.435944 13.430489,118.700249 15.422831,115.786728 
z"/>
<path fill="#C9D0BE" opacity="1.000000" stroke="none" 
	d="
M112.428467,129.000000 
	C111.483795,124.777237 114.286819,124.836487 117.586868,124.993179 
	C118.006439,126.060448 118.005913,127.129494 118.002693,128.599274 
	C116.285645,129.000000 114.571281,129.000000 112.428467,129.000000 
z"/>
<path fill="#473B31" opacity="1.000000" stroke="none" 
	d="
M42.897011,124.223244 
	C42.837860,125.509163 42.449867,126.888916 42.030937,128.634338 
	C41.250000,129.000000 40.500000,129.000000 39.375000,129.000000 
	C40.189388,127.439026 41.378773,125.878044 42.897011,124.223244 
z"/>
<path fill="#413B38" opacity="1.000000" stroke="none" 
	d="
M129.000000,123.625000 
	C128.251175,123.192574 127.502357,122.385139 126.883286,121.285889 
	C127.454559,120.991203 127.896080,120.988350 128.668793,120.992744 
	C129.000000,121.750000 129.000000,122.500000 129.000000,123.625000 
z"/>
<path fill="#271E1B" opacity="1.000000" stroke="none" 
	d="
M73.077782,8.977585 
	C75.157127,9.003800 77.236481,9.030016 79.749092,9.402344 
	C82.422951,12.669999 84.348457,15.899425 82.702202,19.552208 
	C81.754189,21.655687 79.605957,23.218248 77.623917,25.006294 
	C76.500885,24.983961 75.751900,24.979624 74.849304,24.658714 
	C73.129272,23.562696 71.562866,22.783253 69.946487,21.650959 
	C68.612206,20.195740 67.327873,19.093370 66.033981,17.744162 
	C66.024406,17.497320 65.995735,17.004101 65.994553,16.598446 
	C66.330032,14.128890 66.666687,12.064990 67.354752,9.844423 
	C69.496696,9.451034 71.287239,9.214309 73.077782,8.977585 
z"/>
<path fill="#3E3836" opacity="1.000000" stroke="none" 
	d="
M109.072327,70.927505 
	C111.163185,73.324783 113.478081,75.564888 115.294785,78.154503 
	C118.370590,82.538872 121.131607,87.144073 123.673378,91.978470 
	C120.978989,89.457756 118.636169,86.615005 116.077332,83.738678 
	C114.548996,84.474449 113.236702,85.243790 111.565506,85.990517 
	C109.830574,84.138184 108.454544,82.308479 107.078506,80.478767 
	C107.442108,80.161774 107.805702,79.844788 108.169296,79.527794 
	C109.875519,80.144714 111.581749,80.761635 113.287971,81.378555 
	C113.516602,81.081589 113.745239,80.784615 113.973869,80.487648 
	C112.326988,78.987305 110.680107,77.486954 108.897079,75.785385 
	C108.550728,75.330437 108.297020,75.132446 107.999298,74.995712 
	C107.998779,75.001221 108.009781,75.000000 108.000656,74.752159 
	C107.991539,74.504318 107.981255,74.008408 108.220947,73.782600 
	C108.633530,72.710747 108.806419,71.864700 109.002686,70.995995 
	C109.026062,70.973335 109.072327,70.927505 109.072327,70.927505 
z"/>
<path fill="#332A27" opacity="1.000000" stroke="none" 
	d="
M106.129967,50.857155 
	C106.944969,52.454445 107.759972,54.051739 108.564415,55.628330 
	C107.674042,56.256893 106.816200,56.862488 105.535599,57.738857 
	C104.079544,58.009583 103.046257,58.009533 101.859062,57.672508 
	C101.131622,55.217995 100.558090,53.100452 99.972137,50.589561 
	C98.969849,46.777058 97.979973,43.357899 96.844498,39.626991 
	C96.125084,37.873756 95.551270,36.432270 94.978432,34.744446 
	C94.979408,34.498108 94.984100,34.005444 94.983253,33.672199 
	C94.655144,32.559353 94.327881,31.779751 94.000168,30.666924 
	C93.997765,29.889412 93.995804,29.445126 94.313065,29.037777 
	C95.429398,29.382412 96.226509,29.690107 97.020569,30.370035 
	C97.019379,31.486591 97.021240,32.230911 97.073517,33.286392 
	C97.741562,34.069393 98.359192,34.541241 98.981682,35.260056 
	C98.986542,35.507027 99.000610,36.000858 99.011307,36.379765 
	C100.332733,38.852970 101.643463,40.947273 102.979195,43.408489 
	C103.018723,44.020153 103.033249,44.264896 103.047775,44.509644 
	C103.226845,44.695221 103.290642,44.914371 103.144402,45.786903 
	C103.405579,49.194706 103.761536,51.982700 104.222435,55.592621 
	C105.080322,53.462910 105.605141,52.160034 106.129967,50.857155 
z"/>
<path fill="#040303" opacity="1.000000" stroke="none" 
	d="
M22.981764,75.984871 
	C20.880182,77.031235 18.778603,78.077599 16.356833,79.107468 
	C16.024250,77.672356 16.011860,76.253731 16.348877,74.351685 
	C17.800526,71.238258 18.902767,68.608253 20.005009,65.978249 
	C20.005009,65.978249 20.004404,66.003197 20.339046,66.016701 
	C22.436411,64.314140 24.199131,62.598068 26.208256,61.124352 
	C25.669659,63.949226 24.884659,66.531754 24.070650,69.466217 
	C23.743586,71.182480 23.445530,72.546806 23.113482,74.256294 
	C23.046915,75.062592 23.014339,75.523727 22.981764,75.984871 
z"/>
<path fill="#3B302C" opacity="1.000000" stroke="none" 
	d="
M97.023621,29.997803 
	C96.226509,29.690107 95.429398,29.382412 93.981506,29.037930 
	C92.888489,29.000883 92.446251,29.000624 91.971619,28.712414 
	C91.644730,27.947132 91.350227,27.469803 91.052032,26.559902 
	C91.017136,22.437798 90.985931,18.748264 90.954727,15.058731 
	C93.222038,17.822935 95.489342,20.587139 97.663887,23.904028 
	C97.388626,26.303741 97.206123,28.150772 97.023621,29.997803 
z"/>
<path fill="#52453E" opacity="1.000000" stroke="none" 
	d="
M90.785172,14.765697 
	C90.985931,18.748264 91.017136,22.437798 90.784843,26.689785 
	C90.014198,27.837503 89.507057,28.422768 88.753021,29.000862 
	C88.506126,28.993692 88.012459,28.975939 87.969452,28.651968 
	C87.294380,27.220501 86.662323,26.113005 85.904480,24.790979 
	C85.575775,24.301611 85.314728,24.103283 84.996727,23.990965 
	C84.997902,24.000463 85.019691,23.993120 85.040970,23.589264 
	C84.991455,19.026972 84.920654,14.868535 84.849854,10.710097 
	C86.771767,11.964285 88.693680,13.218472 90.785172,14.765697 
z"/>
<path fill="#3B2E28" opacity="1.000000" stroke="none" 
	d="
M84.574127,10.566191 
	C84.920654,14.868535 84.991455,19.026972 84.707886,23.654034 
	C82.575493,25.429800 80.797470,26.736940 78.739159,28.029854 
	C78.305237,27.018515 78.151604,26.021402 77.997971,25.024288 
	C79.605957,23.218248 81.754189,21.655687 82.702202,19.552208 
	C84.348457,15.899425 82.422951,12.669999 80.119675,9.424273 
	C81.470787,9.540821 82.884590,9.981552 84.574127,10.566191 
z"/>
<path fill="#2F323A" opacity="1.000000" stroke="none" 
	d="
M29.143925,49.991837 
	C28.994009,41.637711 33.444519,34.785717 37.034195,27.245895 
	C37.759983,27.019430 37.947117,27.023829 38.100037,27.421715 
	C38.020092,28.868551 37.974365,29.921896 37.582481,31.079880 
	C35.159828,37.457470 33.083328,43.730419 30.695797,50.002197 
	C29.971149,49.997959 29.557537,49.994896 29.143925,49.991837 
z"/>
<path fill="#282424" opacity="1.000000" stroke="none" 
	d="
M72.970100,8.626094 
	C71.287239,9.214309 69.496696,9.451034 66.980438,9.844656 
	C65.506279,10.005660 64.757843,10.009766 63.808121,9.789639 
	C62.738331,9.710075 61.869823,9.854744 60.613178,10.001821 
	C57.813374,10.677419 55.401711,11.350608 52.701408,12.178372 
	C50.949970,13.229996 49.487171,14.127046 47.973549,14.970228 
	C47.922729,14.916361 47.823414,14.806476 47.823414,14.806475 
	C49.736210,13.133328 51.385326,10.742205 53.612236,9.924377 
	C59.793003,7.654503 66.106583,4.665835 72.970100,8.626094 
z"/>
<path fill="#3F3A3A" opacity="1.000000" stroke="none" 
	d="
M97.020569,30.370037 
	C97.206123,28.150772 97.388626,26.303741 97.788269,24.223848 
	C102.255463,29.941751 104.474777,36.468353 103.343773,44.185341 
	C103.033249,44.264896 103.018723,44.020153 102.945190,43.049461 
	C101.591003,40.215961 100.295807,38.108410 99.000610,36.000858 
	C99.000610,36.000858 98.986542,35.507027 98.930527,34.949799 
	C98.257378,33.920124 97.640236,33.447681 97.023102,32.975235 
	C97.021240,32.230911 97.019379,31.486591 97.020569,30.370037 
z"/>
<path fill="#EDC9B6" opacity="1.000000" stroke="none" 
	d="
M119.982773,19.986050 
	C119.672150,22.393108 119.571831,24.501251 118.821014,26.344421 
	C118.672905,26.708015 115.914528,26.315002 114.555473,25.776987 
	C113.553978,25.380524 112.065666,23.566071 112.168671,23.430920 
	C113.395493,21.821175 114.706390,20.137728 116.375183,19.064192 
	C117.141167,18.571434 118.742546,19.377304 119.982773,19.986050 
z"/>
<path fill="#040303" opacity="1.000000" stroke="none" 
	d="
M116.293358,83.772263 
	C118.636169,86.615005 120.978989,89.457756 123.692940,92.380798 
	C124.064079,92.461105 124.041969,92.439919 124.054420,92.424889 
	C123.261566,93.569771 122.456261,94.729691 121.035393,95.832886 
	C116.263863,92.730682 117.276642,87.908386 116.293358,83.772263 
z"/>
<path fill="#3E332E" opacity="1.000000" stroke="none" 
	d="
M102.012970,58.009483 
	C103.046257,58.009533 104.079544,58.009583 105.497574,58.018402 
	C106.490784,60.123737 107.099258,62.220303 107.498840,64.706024 
	C106.188751,65.731529 105.087532,66.367882 103.710495,66.751770 
	C102.960770,63.669369 102.486870,60.839428 102.012970,58.009483 
z"/>
<path fill="#272930" opacity="1.000000" stroke="none" 
	d="
M38.134254,27.028225 
	C37.947117,27.023829 37.759983,27.019430 37.292183,27.010338 
	C39.765572,23.339384 42.519627,19.673126 45.738853,16.164003 
	C46.464363,16.547222 46.724693,16.773308 46.773071,17.254969 
	C43.752163,20.683105 40.943207,23.855665 38.134254,27.028225 
z"/>
<path fill="#313032" opacity="1.000000" stroke="none" 
	d="
M29.052958,50.343643 
	C29.557537,49.994896 29.971149,49.997959 30.823322,50.208389 
	C31.467825,50.675568 31.723959,50.868881 32.022339,51.391045 
	C31.992289,52.840618 31.970182,53.894848 31.617020,55.036808 
	C29.529871,56.422234 27.773777,57.719933 25.947716,58.941559 
	C25.877748,58.865486 25.741346,58.710171 25.741344,58.710171 
	C26.814892,56.038593 27.888441,53.367020 29.052958,50.343643 
z"/>
<path fill="#3A3433" opacity="1.000000" stroke="none" 
	d="
M106.087601,50.501041 
	C105.605141,52.160034 105.080322,53.462910 104.222435,55.592621 
	C103.761536,51.982700 103.405579,49.194706 103.063889,45.944405 
	C104.067184,47.036373 105.056213,48.590652 106.087601,50.501041 
z"/>
<path fill="#3E3836" opacity="1.000000" stroke="none" 
	d="
M103.986313,67.004234 
	C105.087532,66.367882 106.188751,65.731529 107.604591,65.052383 
	C108.259628,66.735687 108.600029,68.461784 109.006378,70.557693 
	C109.072327,70.927505 109.026062,70.973335 108.684509,70.924538 
	C107.226158,70.251259 106.109352,69.626785 104.769531,68.815475 
	C104.359787,68.087181 104.173050,67.545708 103.986313,67.004234 
z"/>
<path fill="#313032" opacity="1.000000" stroke="none" 
	d="
M25.961849,60.882000 
	C24.199131,62.598068 22.436411,64.314140 20.326763,66.018898 
	C21.702227,63.670872 23.424618,61.334152 25.444178,58.853798 
	C25.741346,58.710171 25.877748,58.865486 25.942783,59.252670 
	C25.992496,60.053902 25.977173,60.467953 25.961849,60.882000 
z"/>
<path fill="#313032" opacity="1.000000" stroke="none" 
	d="
M19.696377,66.134567 
	C18.902767,68.608253 17.800526,71.238258 16.351463,73.927956 
	C17.132341,71.422058 18.260044,68.856468 19.696377,66.134567 
z"/>
<path fill="#282424" opacity="1.000000" stroke="none" 
	d="
M46.985031,16.999393 
	C46.724693,16.773308 46.464363,16.547222 46.079308,16.089718 
	C46.401619,15.555676 46.848660,15.253055 47.559555,14.878454 
	C47.823414,14.806476 47.922729,14.916361 47.933250,15.258684 
	C47.624191,16.067135 47.304611,16.533264 46.985031,16.999393 
z"/>
<path fill="#4A423E" opacity="1.000000" stroke="none" 
	d="
M126.028351,99.532883 
	C125.936096,99.480591 125.934883,99.483131 125.921059,99.488792 
	C125.907234,99.494453 126.196602,99.447334 126.196602,99.447334 
	C126.196602,99.447334 126.120613,99.585175 126.028351,99.532883 
z"/>
<path fill="#1C1615" opacity="1.000000" stroke="none" 
	d="
M46.773075,17.254971 
	C47.304611,16.533264 47.624191,16.067135 47.984074,15.312551 
	C49.487171,14.127046 50.949970,13.229996 52.694191,12.542598 
	C50.983517,17.168236 48.991421,21.584223 46.778419,26.264240 
	C47.132015,30.674410 47.814396,35.037815 44.181431,38.099152 
	C38.844311,42.596500 37.729225,48.664959 36.760437,55.235512 
	C35.944637,58.145153 35.032154,60.804569 34.900944,63.501995 
	C34.796021,65.658966 35.641376,67.862160 36.064964,70.044838 
	C36.061462,70.774597 36.057957,71.504364 35.989494,72.965134 
	C35.965305,76.475281 36.006073,79.254425 36.046844,82.033569 
	C36.044193,82.468597 36.041546,82.903625 35.768745,83.975624 
	C35.528969,88.165009 35.536110,91.717827 35.596920,95.269722 
	C35.647343,98.214790 35.761009,101.158768 35.567814,103.961960 
	C33.524899,104.208595 31.760830,104.596497 30.015882,104.611252 
	C30.871628,101.367615 34.806076,97.020493 27.000372,98.295387 
	C26.254637,98.417183 25.013525,95.505936 24.177212,93.707626 
	C25.183233,92.903259 25.992434,92.353218 26.849203,91.891426 
	C32.366638,88.917587 32.880260,85.161896 28.375275,81.531502 
	C28.900780,79.232971 29.615484,77.021416 29.884628,74.756905 
	C30.668016,68.165649 31.273081,61.553211 31.948076,54.949081 
	C31.970182,53.894848 31.992289,52.840618 32.330505,51.198551 
	C34.689419,45.450626 36.859634,40.334694 38.675411,35.095917 
	C39.073734,33.946697 38.210762,32.360310 37.928635,30.975243 
	C37.974365,29.921896 38.020092,28.868551 38.100037,27.421715 
	C40.943207,23.855665 43.752163,20.683105 46.773075,17.254971 
z"/>
<path fill="#231A16" opacity="1.000000" stroke="none" 
	d="
M51.117695,99.075012 
	C50.524109,98.298874 49.930523,97.522736 49.067329,96.394066 
	C48.313652,97.631165 47.639454,98.737793 46.580120,100.476593 
	C38.926285,91.434891 41.649128,81.117035 41.454079,71.190781 
	C43.079353,71.441338 44.378151,71.939812 45.720573,72.588364 
	C45.764206,72.738441 45.970043,72.973656 45.954460,73.315216 
	C46.638344,74.776764 47.337807,75.896744 48.113682,77.248383 
	C48.348961,77.802307 48.607361,77.979065 49.015877,78.285049 
	C49.361221,78.765060 49.655975,78.970337 49.999596,79.399582 
	C50.222824,79.913528 50.479179,80.057312 50.909874,80.320786 
	C51.328232,80.751183 51.654251,80.915665 52.094723,81.352821 
	C52.913589,82.311172 53.618008,82.996849 54.276634,84.163223 
	C53.803471,89.087158 53.376091,93.530403 52.729530,98.105286 
	C52.356068,98.534889 52.201794,98.832840 51.816414,99.094261 
	C51.585312,99.057732 51.117695,99.075012 51.117695,99.075012 
z"/>
<path fill="#2D211B" opacity="1.000000" stroke="none" 
	d="
M36.450287,70.028229 
	C35.641376,67.862160 34.796021,65.658966 34.900944,63.501995 
	C35.032154,60.804569 35.944637,58.145153 37.125587,55.218147 
	C39.133278,53.340366 40.535233,51.713760 41.932831,50.092213 
	C44.454880,49.767490 47.277981,49.404011 49.960625,49.321030 
	C48.904041,50.401878 47.987911,51.202225 46.712868,52.060547 
	C45.234192,54.077404 44.114429,56.036289 42.994663,57.995171 
	C42.038803,61.079544 41.281918,64.248207 40.028660,67.206596 
	C39.530888,68.381615 37.932766,69.090500 36.450287,70.028229 
z"/>
<path fill="#F6C1A3" opacity="1.000000" stroke="none" 
	d="
M45.970043,72.973656 
	C45.970043,72.973656 45.764206,72.738441 45.849419,72.265717 
	C46.420166,70.089317 49.311501,68.139854 45.432911,66.882027 
	C45.290161,64.902657 45.147408,62.923294 45.374660,60.500202 
	C46.173561,59.953121 46.602455,59.849762 47.235962,60.037262 
	C50.325890,62.577923 53.486954,63.074657 56.941910,62.227982 
	C57.020229,68.988815 52.407368,71.560043 47.494522,73.929565 
	C46.841328,73.520927 46.405685,73.247292 45.970043,72.973656 
z"/>
<path fill="#627168" opacity="1.000000" stroke="none" 
	d="
M33.379620,122.899841 
	C32.353313,120.424408 31.623095,117.768890 30.491215,114.687195 
	C29.748621,113.441948 29.407690,112.622879 29.049868,111.452103 
	C28.369484,109.466530 27.705992,107.832657 27.003284,106.085144 
	C26.964067,105.971504 26.920359,105.735077 27.301579,105.765152 
	C28.446280,105.803444 29.209759,105.811661 30.017490,106.173752 
	C30.569979,107.846542 31.078217,109.165466 31.922432,111.356270 
	C32.405396,109.321968 32.660484,108.247505 33.191849,106.009346 
	C35.194012,108.570183 36.554726,110.310585 37.915443,112.050987 
	C38.397907,116.360596 38.129162,120.371674 33.379620,122.899841 
z"/>
<path fill="#42362F" opacity="1.000000" stroke="none" 
	d="
M47.031353,59.746407 
	C46.602455,59.849762 46.173561,59.953121 45.412895,60.098221 
	C44.601696,59.470123 44.122269,58.800282 43.318756,58.062805 
	C44.114429,56.036289 45.234192,54.077404 47.024132,52.190582 
	C50.770237,52.562737 53.846157,52.862831 57.089603,53.411861 
	C57.885689,54.450565 58.514252,55.240334 59.081001,56.244377 
	C59.019192,56.458652 58.949429,56.899193 58.687996,56.976669 
	C58.306046,57.365971 58.185535,57.677795 57.985126,58.119671 
	C57.905231,58.249725 57.943501,58.552589 57.623280,58.559639 
	C54.457020,57.803589 51.610981,57.040493 48.082893,56.094524 
	C47.858604,56.873451 47.444981,58.309929 47.031353,59.746407 
z"/>
<path fill="#CA8E6F" opacity="1.000000" stroke="none" 
	d="
M51.994400,110.055931 
	C51.314857,110.315956 50.635315,110.575974 49.660522,111.062096 
	C48.940636,109.540512 48.516003,107.792839 48.431839,105.541580 
	C49.516830,104.359871 50.261353,103.681740 51.403603,103.002655 
	C53.833317,102.205841 55.863068,101.404205 57.897808,100.615456 
	C60.973293,99.423271 64.052261,98.240074 66.952972,97.339554 
	C64.502632,99.396309 62.229061,101.166557 59.658207,103.102325 
	C56.905415,105.530548 54.449909,107.793236 51.994400,110.055931 
z"/>
<path fill="#2D211B" opacity="1.000000" stroke="none" 
	d="
M35.846657,104.103233 
	C35.761009,101.158768 35.647343,98.214790 35.596920,95.269722 
	C35.536110,91.717827 35.528969,88.165009 35.768822,84.301895 
	C36.637379,85.290184 37.519470,86.535156 37.779068,87.898636 
	C38.466572,91.509552 38.363472,95.358345 39.578682,98.753204 
	C40.514889,101.368652 40.531994,103.024597 37.858734,104.833374 
	C36.817661,104.695564 36.332157,104.399399 35.846657,104.103233 
z"/>
<path fill="#473B31" opacity="1.000000" stroke="none" 
	d="
M43.903046,123.992020 
	C43.903042,123.992020 43.576374,124.171883 43.390217,124.176643 
	C41.204166,119.243378 41.432911,114.419540 43.886192,108.739105 
	C44.655979,110.558624 45.068611,111.533943 45.762581,113.186539 
	C45.330292,117.239891 44.616669,120.615952 43.903046,123.992020 
z"/>
<path fill="#CA8E6F" opacity="1.000000" stroke="none" 
	d="
M44.260262,123.945564 
	C44.616669,120.615952 45.330292,117.239891 45.989372,113.431953 
	C46.066803,112.032341 46.198769,111.064598 46.353985,109.926384 
	C47.332565,110.937157 48.184643,111.817268 49.331261,112.680145 
	C50.814960,117.682480 49.232666,121.466721 44.260262,123.945564 
z"/>
<path fill="#54534A" opacity="1.000000" stroke="none" 
	d="
M35.567814,103.961960 
	C36.332157,104.399399 36.817661,104.695564 37.589989,105.034569 
	C37.912239,107.109688 37.947666,109.141968 37.949268,111.612610 
	C36.554726,110.310585 35.194012,108.570183 33.191849,106.009346 
	C32.660484,108.247505 32.405396,109.321968 31.922432,111.356270 
	C31.078217,109.165466 30.569979,107.846542 30.011288,105.965080 
	C29.960835,105.402542 29.996758,104.984398 29.996758,104.984398 
	C31.760830,104.596497 33.524899,104.208595 35.567814,103.961960 
z"/>
<path fill="#C3886C" opacity="1.000000" stroke="none" 
	d="
M45.065514,66.892166 
	C49.311501,68.139854 46.420166,70.089317 45.805786,72.115646 
	C44.378151,71.939812 43.079353,71.441338 41.507759,70.707642 
	C42.389347,69.282387 43.543728,68.092354 45.065514,66.892166 
z"/>
<path fill="#2D211B" opacity="1.000000" stroke="none" 
	d="
M36.429844,81.998795 
	C36.006073,79.254425 35.965305,76.475281 35.993778,73.330009 
	C39.730488,76.441376 39.965672,79.264297 36.429844,81.998795 
z"/>
<path fill="#BA785B" opacity="1.000000" stroke="none" 
	d="
M51.005875,103.003609 
	C50.261353,103.681740 49.516830,104.359871 48.393204,105.151688 
	C45.177685,101.541862 49.644604,101.423424 50.949165,99.367905 
	C51.117695,99.075012 51.585312,99.057732 51.814484,99.432846 
	C51.697727,100.873177 51.351799,101.938393 51.005875,103.003609 
z"/>
<path fill="#F0CDB0" opacity="1.000000" stroke="none" 
	d="
M59.955494,102.936806 
	C62.229061,101.166557 64.502632,99.396309 67.230087,97.197815 
	C68.833443,95.870392 69.982910,94.971222 71.467361,94.146584 
	C72.392784,95.759438 73.690498,97.429184 73.433884,98.810089 
	C72.800087,102.220810 74.420181,102.931877 77.157837,102.979752 
	C78.146446,102.997032 79.198196,102.816330 80.106232,103.097313 
	C81.071815,103.396103 81.901169,104.135162 82.790024,104.681976 
	C82.069656,105.646187 81.502121,107.228508 80.598579,107.451920 
	C78.400665,107.995384 76.035194,107.829063 73.768379,108.161270 
	C73.435211,108.210091 73.272102,109.419235 73.030304,110.091507 
	C73.406769,111.434349 73.783226,112.777184 74.406441,115.000175 
	C72.461861,115.000175 70.645271,115.000175 68.413116,115.003143 
	C67.553001,115.004578 67.108437,115.003052 66.330368,115.001396 
	C66.760818,114.030533 67.524796,113.059792 68.678955,112.138931 
	C69.069145,112.188805 69.357307,112.199989 69.357307,112.199989 
	C69.357307,112.199989 68.981255,111.948219 68.981255,111.948219 
	C68.249115,110.693977 67.452919,108.365227 66.797890,108.404282 
	C65.335793,108.491447 63.944138,109.760178 61.984322,110.523987 
	C60.948402,107.979240 60.451950,105.458023 59.955494,102.936806 
z"/>
<path fill="#E6B696" opacity="1.000000" stroke="none" 
	d="
M73.468735,110.066887 
	C73.272102,109.419235 73.435211,108.210091 73.768379,108.161270 
	C76.035194,107.829063 78.400665,107.995384 80.598579,107.451920 
	C81.502121,107.228508 82.069656,105.646187 82.790024,104.681976 
	C81.901169,104.135162 81.071815,103.396103 80.106232,103.097313 
	C79.198196,102.816330 78.146446,102.997032 77.157837,102.979752 
	C74.420181,102.931877 72.800087,102.220810 73.433884,98.810089 
	C73.690498,97.429184 72.392784,95.759438 71.558609,93.883774 
	C71.598686,93.067818 71.882515,92.589203 72.413437,91.925430 
	C73.462502,90.811783 74.264481,89.883301 75.307213,88.978653 
	C75.547966,89.002480 76.031731,88.992943 76.037369,89.418671 
	C76.163765,91.250130 76.284531,92.655869 76.348518,94.316711 
	C76.475983,94.856140 76.660217,95.140442 76.898430,95.754585 
	C78.601074,97.244347 80.249741,98.404266 82.112045,99.764801 
	C83.313766,101.637405 84.301849,103.309410 85.223328,105.301758 
	C85.361679,106.450287 85.566628,107.278465 85.771568,108.106644 
	C87.384232,111.216560 88.996887,114.326469 90.598244,117.786331 
	C90.174011,118.963448 89.761078,119.790619 89.102875,120.763809 
	C87.740860,118.758957 86.624123,116.608086 85.268799,113.814919 
	C84.934853,110.502243 84.981812,107.653717 80.948906,109.912079 
	C78.601654,109.955475 76.254410,109.998871 73.468735,110.066887 
z"/>
<path fill="#F0CDB0" opacity="1.000000" stroke="none" 
	d="
M81.202438,110.136169 
	C84.981812,107.653717 84.934853,110.502243 85.044212,113.567322 
	C83.857468,112.761436 82.656723,111.560852 81.202438,110.136169 
z"/>
<path fill="#262020" opacity="1.000000" stroke="none" 
	d="
M31.617020,55.036808 
	C31.273081,61.553211 30.668016,68.165649 29.884628,74.756905 
	C29.615484,77.021416 28.900780,79.232971 28.375275,81.531502 
	C32.880260,85.161896 32.366638,88.917587 26.849203,91.891426 
	C25.992434,92.353218 25.183233,92.903259 23.843195,93.706841 
	C22.889046,93.999649 22.443737,93.998116 21.987078,93.616798 
	C21.630922,91.765312 21.286119,90.293625 20.964516,88.459229 
	C21.659250,85.716400 22.330786,83.336266 23.002321,80.956139 
	C23.207050,79.348434 23.411777,77.740723 23.299135,76.058945 
	C23.014339,75.523727 23.046915,75.062592 23.434860,74.184586 
	C23.893373,72.216568 23.996517,70.665428 24.099659,69.114281 
	C24.884659,66.531754 25.669659,63.949226 26.208256,61.124352 
	C25.977173,60.467953 25.992496,60.053902 26.012751,59.328743 
	C27.773777,57.719933 29.529871,56.422234 31.617020,55.036808 
z"/>
<path fill="#2F2826" opacity="1.000000" stroke="none" 
	d="
M16.149704,112.054222 
	C14.045436,112.848946 11.941167,113.643669 9.836897,114.438393 
	C9.829196,111.614456 9.821309,108.790512 9.813972,105.966576 
	C9.812713,105.481911 9.813794,104.997238 9.813794,103.994949 
	C8.453877,103.994949 7.098841,103.994949 5.375959,103.993309 
	C6.768742,103.022591 8.529370,102.053513 10.932350,101.213661 
	C12.539631,103.190285 13.504562,105.037666 14.469493,106.885056 
	C14.655668,106.603226 14.841845,106.321396 15.028020,106.039566 
	C16.389633,106.837875 17.751247,107.636192 18.954445,108.676392 
	C17.913921,109.963600 17.031815,111.008911 16.149704,112.054222 
z"/>
<path fill="#26201F" opacity="1.000000" stroke="none" 
	d="
M19.112862,108.434509 
	C17.751247,107.636192 16.389633,106.837875 15.028020,106.039566 
	C14.841845,106.321396 14.655668,106.603226 14.469493,106.885056 
	C13.504562,105.037666 12.539631,103.190285 11.274668,101.167816 
	C10.974634,100.992737 10.996161,100.501534 11.364887,100.202354 
	C13.153524,99.600410 14.573436,99.297646 16.227707,99.260300 
	C19.001339,99.867050 21.540609,100.208397 24.269375,100.575218 
	C24.903021,101.808540 25.911690,103.771812 26.920361,105.735077 
	C26.920359,105.735077 26.964067,105.971504 26.617197,106.054237 
	C23.884504,106.902817 21.498682,107.668663 19.112862,108.434509 
z"/>
<path fill="#2F2826" opacity="1.000000" stroke="none" 
	d="
M15.993349,98.994888 
	C14.573436,99.297646 13.153524,99.600410 11.373177,99.956650 
	C11.636224,98.492294 12.259708,96.974457 12.913708,94.911926 
	C12.944222,94.367241 13.019026,93.995201 13.019025,93.995201 
	C13.971845,93.527847 14.924664,93.060501 16.286873,92.238365 
	C18.111282,90.863029 19.526300,89.842484 20.941319,88.821930 
	C21.286119,90.293625 21.630922,91.765312 21.698677,93.773666 
	C19.612204,95.871841 17.802776,97.433365 15.993349,98.994888 
z"/>
<path fill="#030202" opacity="1.000000" stroke="none" 
	d="
M13.024681,93.625366 
	C13.019026,93.995201 12.944222,94.367241 12.930209,94.554192 
	C11.800441,94.953621 10.684686,95.166100 9.335215,95.423088 
	C8.413175,90.427376 10.689327,87.778107 15.423567,86.043991 
	C14.517896,88.773056 13.774117,91.014297 13.024681,93.625366 
z"/>
<path fill="#050405" opacity="1.000000" stroke="none" 
	d="
M20.964516,88.459229 
	C19.526300,89.842484 18.111282,90.863029 16.371109,91.903023 
	C18.153282,88.357536 20.260609,84.792603 22.685127,81.091904 
	C22.330786,83.336266 21.659250,85.716400 20.964516,88.459229 
z"/>
<path fill="#7A847C" opacity="1.000000" stroke="none" 
	d="
M18.954445,108.676392 
	C21.498682,107.668663 23.884504,106.902817 26.656414,106.167877 
	C27.705992,107.832657 28.369484,109.466530 28.702711,111.540115 
	C26.240196,112.317772 24.107948,112.655708 21.975700,112.993637 
	C21.121637,113.517326 20.267574,114.041023 19.215561,114.790833 
	C18.228271,115.005486 17.438929,114.994026 16.254112,114.954803 
	C15.933442,114.209564 16.008247,113.492073 16.116381,112.414406 
	C17.031815,111.008911 17.913921,109.963600 18.954445,108.676392 
z"/>
<path fill="#4A423E" opacity="1.000000" stroke="none" 
	d="
M116.077332,83.738678 
	C117.276642,87.908386 116.263863,92.730682 120.708839,95.967514 
	C120.640152,96.756653 120.282455,97.354431 119.358566,97.981949 
	C117.509865,97.278618 116.227371,96.545540 114.831741,95.640106 
	C114.530724,95.258507 114.306915,95.099953 114.030884,94.745895 
	C114.014610,94.499710 113.991768,94.006790 113.999489,93.673492 
	C113.356834,91.560234 112.706459,89.780281 112.043442,87.668533 
	C111.995338,86.895531 111.959869,86.454338 111.924393,86.013138 
	C113.236702,85.243790 114.548996,84.474449 116.077332,83.738678 
z"/>
<path fill="#413B38" opacity="1.000000" stroke="none" 
	d="
M127.007164,120.609589 
	C125.266006,120.660492 123.525719,120.331337 121.400467,119.999466 
	C119.986015,116.932701 118.956543,113.868652 117.827667,110.441101 
	C122.496689,111.930328 126.012962,114.927628 127.007164,120.609589 
z"/>
<path fill="#060504" opacity="1.000000" stroke="none" 
	d="
M114.944870,95.812462 
	C116.227371,96.545540 117.509865,97.278618 119.049438,98.162689 
	C119.490662,99.269936 119.674812,100.226189 119.609207,101.662750 
	C119.164314,102.329285 119.029114,102.551933 118.953873,102.811012 
	C117.891434,102.513489 116.829002,102.215965 115.410606,101.447281 
	C114.409081,100.291214 113.763519,99.606323 113.093445,98.720230 
	C113.068947,98.519043 113.070686,98.113258 113.336182,97.960045 
	C114.049416,97.142044 114.497147,96.477257 114.944870,95.812462 
z"/>
<path fill="#4A423E" opacity="1.000000" stroke="none" 
	d="
M118.968117,103.196640 
	C119.029114,102.551933 119.164314,102.329285 119.520775,102.033447 
	C121.237129,103.490204 122.907326,104.968216 124.239838,106.705276 
	C124.476456,107.013733 123.308731,108.399460 122.265434,110.184235 
	C120.897377,107.433189 119.939873,105.507729 118.968117,103.196640 
z"/>
<path fill="#4A423E" opacity="1.000000" stroke="none" 
	d="
M113.117950,98.921425 
	C113.763519,99.606323 114.409081,100.291214 115.125237,101.243103 
	C115.112305,102.511040 115.028786,103.511986 114.912689,105.013153 
	C113.944771,104.895576 113.009445,104.277763 111.723221,103.554367 
	C111.372322,103.448776 111.304001,103.455574 111.183990,103.254288 
	C110.714806,102.718628 110.365631,102.384254 110.025879,101.708527 
	C110.023392,100.912056 110.011475,100.456947 110.328903,99.962067 
	C111.478149,99.588676 112.298050,99.255051 113.117950,98.921425 
z"/>
<path fill="#EDB895" opacity="1.000000" stroke="none" 
	d="
M59.658207,103.102325 
	C60.451950,105.458023 60.948402,107.979240 61.718845,110.749641 
	C59.922001,111.023369 57.851173,111.047920 55.404221,111.075607 
	C54.172634,110.892174 53.317173,110.705605 52.228058,110.287491 
	C54.449909,107.793236 56.905415,105.530548 59.658207,103.102325 
z"/>
<path fill="#B2BAA9" opacity="1.000000" stroke="none" 
	d="
M22.356565,113.113014 
	C24.107948,112.655708 26.240196,112.317772 28.719601,111.891830 
	C29.407690,112.622879 29.748621,113.441948 30.140326,114.599792 
	C28.605814,118.773636 27.020531,122.608704 25.213924,126.721001 
	C24.660519,124.185471 24.402374,121.361275 23.969782,118.564064 
	C23.691757,116.766304 23.157072,115.008247 22.356565,113.113014 
z"/>
<path fill="#CCC8B4" opacity="1.000000" stroke="none" 
	d="
M111.303055,120.058334 
	C110.144325,118.840363 109.276360,117.675636 108.202873,115.841675 
	C107.997116,113.776222 107.996880,112.380028 107.996437,110.744980 
	C107.996231,110.506142 107.996872,110.028053 108.343773,110.068420 
	C112.119835,111.468811 112.060150,109.153183 112.065186,106.905762 
	C113.085007,110.034195 114.104828,113.162636 115.100784,116.630234 
	C114.770294,118.575653 114.463676,120.181900 114.072411,122.231575 
	C113.062019,121.367371 112.327919,120.739479 111.303055,120.058334 
z"/>
<path fill="#DEC0A6" opacity="1.000000" stroke="none" 
	d="
M111.891312,106.588455 
	C112.060150,109.153183 112.119835,111.468811 108.142632,109.806870 
	C104.190331,106.646202 107.663101,105.589622 109.433548,103.965836 
	C110.318489,103.783531 110.811249,103.619560 111.304001,103.455582 
	C111.304001,103.455574 111.372322,103.448776 111.401978,103.463486 
	C111.526894,104.409180 111.622162,105.340164 111.891312,106.588455 
z"/>
<path fill="#3D2C24" opacity="1.000000" stroke="none" 
	d="
M86.083542,108.043381 
	C85.566628,107.278465 85.361679,106.450287 85.549088,105.175987 
	C85.963135,102.158279 85.984825,99.586685 86.003136,97.008369 
	C85.999763,97.001640 86.011185,97.006996 86.412399,96.975082 
	C87.540894,95.726395 88.714355,94.573158 88.898628,93.279053 
	C89.238091,90.895180 88.996307,88.428528 89.006828,85.631760 
	C89.348236,83.859016 89.679558,82.450905 90.349297,81.198250 
	C91.425987,83.664436 92.713387,85.958755 92.783012,88.289452 
	C92.910149,92.544670 92.316216,96.821434 91.951141,101.456787 
	C91.594543,103.555939 91.309868,105.287514 91.025192,107.019096 
	C89.481972,107.339439 87.938744,107.659782 86.083542,108.043381 
z"/>
<path fill="#9FAC99" opacity="1.000000" stroke="none" 
	d="
M98.973190,112.989197 
	C99.384315,116.467918 99.795441,119.946648 100.050598,123.784065 
	C97.659149,120.329277 95.423683,116.515785 93.367783,112.116623 
	C94.350578,109.961784 95.153824,108.392609 96.266251,107.024658 
	C97.374680,109.146996 98.173935,111.068100 98.973190,112.989197 
z"/>
<path fill="#AE7E65" opacity="1.000000" stroke="none" 
	d="
M95.957077,106.823441 
	C95.153824,108.392609 94.350578,109.961784 93.318848,111.767776 
	C92.453613,110.571854 91.816864,109.139099 91.102654,107.362724 
	C91.309868,105.287514 91.594543,103.555939 92.281090,101.444351 
	C93.121094,101.026314 93.559227,100.988297 94.247330,101.099030 
	C94.668327,101.339218 94.839348,101.430634 95.014877,101.866020 
	C95.331940,103.747803 95.644508,105.285622 95.957077,106.823441 
z"/>
<path fill="#798677" opacity="1.000000" stroke="none" 
	d="
M96.266251,107.024666 
	C95.644508,105.285622 95.331940,103.747803 95.285278,101.609940 
	C98.380699,101.142601 101.210213,101.275291 103.957550,101.729187 
	C102.898300,104.348015 101.921234,106.645653 100.943398,108.924042 
	C100.942627,108.904808 100.913116,108.876228 100.913116,108.876228 
	C100.274544,110.002464 99.635971,111.128708 98.985298,112.622070 
	C98.173935,111.068100 97.374680,109.146996 96.266251,107.024666 
z"/>
<path fill="#DEC0A6" opacity="1.000000" stroke="none" 
	d="
M107.996643,110.983826 
	C107.996880,112.380028 107.997116,113.776222 107.995308,115.591782 
	C107.438744,116.204567 106.884232,116.397995 106.135246,116.822571 
	C103.615105,117.142349 101.721237,116.718185 101.989891,113.347137 
	C101.990433,112.967819 101.996498,113.009941 102.308868,112.835785 
	C104.413048,112.102356 106.204842,111.543091 107.996643,110.983826 
z"/>
<path fill="#9FAC99" opacity="1.000000" stroke="none" 
	d="
M101.975616,112.952026 
	C101.627167,111.829865 101.293541,110.723503 100.936516,109.246681 
	C100.913116,108.876228 100.942627,108.904808 101.199997,109.179367 
	C101.637077,110.639259 101.816788,111.824600 101.996498,113.009941 
	C101.996498,113.009941 101.990433,112.967819 101.975616,112.952026 
z"/>
<path fill="#4F392E" opacity="1.000000" stroke="none" 
	d="
M77.623917,25.006294 
	C78.151604,26.021402 78.305237,27.018515 78.734825,28.351826 
	C79.010071,29.118166 79.009354,29.548309 78.662361,30.030224 
	C76.568314,30.046436 74.820549,30.010881 73.058662,29.732128 
	C73.044548,29.488932 73.037491,29.001774 73.270554,28.781647 
	C74.003380,27.366110 74.503143,26.170698 75.002914,24.975286 
	C75.751900,24.979624 76.500885,24.983961 77.623917,25.006294 
z"/>
<path fill="#3B2E28" opacity="1.000000" stroke="none" 
	d="
M64.009415,10.013871 
	C64.757843,10.009766 65.506279,10.005660 66.629028,10.001322 
	C66.666687,12.064990 66.330032,14.128890 65.613174,16.597090 
	C64.470848,16.968567 63.708710,16.935747 62.977531,16.520859 
	C63.342129,14.097151 63.675770,12.055511 64.009415,10.013871 
z"/>
<path fill="#3B2E28" opacity="1.000000" stroke="none" 
	d="
M74.849304,24.658714 
	C74.503143,26.170698 74.003380,27.366110 73.019226,28.787479 
	C72.367668,29.019995 72.200493,29.026548 72.161507,28.714088 
	C71.502548,26.288870 70.715385,24.182665 69.945282,22.058294 
	C69.962341,22.040131 69.996452,22.003807 69.996452,22.003807 
	C71.562866,22.783253 73.129272,23.562696 74.849304,24.658714 
z"/>
<path fill="#3B2E28" opacity="1.000000" stroke="none" 
	d="
M66.043549,17.991001 
	C67.327873,19.093370 68.612206,20.195740 69.946487,21.650959 
	C69.996452,22.003807 69.962341,22.040131 69.583473,22.037046 
	C67.804443,21.021803 66.404289,20.009644 65.134338,18.788868 
	C65.473389,18.316656 65.733055,18.120239 66.043549,17.991001 
z"/>
<path fill="#4A3C35" opacity="1.000000" stroke="none" 
	d="
M66.033981,17.744160 
	C65.733055,18.120239 65.473389,18.316656 65.132034,18.790344 
	C64.999512,19.000433 64.995033,19.005020 64.686386,19.020195 
	C63.969650,19.073748 63.561550,19.112127 63.086575,19.091030 
	C63.019695,19.031555 62.884502,18.914234 62.908901,18.590033 
	C62.925274,17.831570 62.917244,17.397310 62.922256,16.950863 
	C62.935295,16.938679 62.946571,16.902925 62.946571,16.902925 
	C63.708710,16.935747 64.470848,16.968567 65.614365,17.002745 
	C65.995735,17.004101 66.024406,17.497320 66.033981,17.744160 
z"/>
<path fill="#3A2E28" opacity="1.000000" stroke="none" 
	d="
M111.565498,85.990517 
	C111.959869,86.454338 111.995338,86.895531 111.755280,87.725258 
	C111.321266,89.408165 111.162773,90.702538 111.001633,91.998833 
	C110.998985,92.000748 110.992599,92.005264 110.698685,91.843811 
	C109.190353,90.331238 108.168182,88.672127 106.687347,87.747841 
	C105.838531,87.218040 104.244797,87.881706 102.735527,87.748337 
	C100.996391,84.321106 99.508148,81.153595 98.034988,77.576874 
	C98.365631,74.110718 98.681198,71.053780 99.267532,68.233025 
	C101.040054,72.361076 102.307663,76.556679 108.009781,75.000000 
	C108.009781,75.000000 107.998779,75.001221 108.012283,75.210876 
	C108.361603,75.609230 108.697411,75.797920 109.033218,75.986603 
	C110.680107,77.486954 112.326988,78.987305 113.973869,80.487648 
	C113.745239,80.784615 113.516602,81.081589 113.287971,81.378555 
	C111.581749,80.761635 109.875519,80.144714 108.169296,79.527794 
	C107.805702,79.844788 107.442108,80.161774 107.078506,80.478767 
	C108.454544,82.308479 109.830574,84.138184 111.565498,85.990517 
z"/>
<path fill="#2E231D" opacity="1.000000" stroke="none" 
	d="
M108.000656,74.752159 
	C102.307663,76.556679 101.040054,72.361076 99.212067,67.859512 
	C98.851952,67.000359 98.818077,66.750885 98.775505,66.119644 
	C98.489410,63.216095 98.212006,60.694309 97.955536,57.741379 
	C98.645836,55.201122 99.315201,53.092018 99.984558,50.982910 
	C100.558090,53.100452 101.131622,55.217995 101.859062,57.672508 
	C102.486870,60.839428 102.960770,63.669369 103.710495,66.751770 
	C104.173050,67.545708 104.359787,68.087181 104.815788,69.152237 
	C106.050461,71.120026 107.015854,72.564217 107.981255,74.008408 
	C107.981255,74.008408 107.991539,74.504318 108.000656,74.752159 
z"/>
<path fill="#3E332E" opacity="1.000000" stroke="none" 
	d="
M108.220947,73.782600 
	C107.015854,72.564217 106.050461,71.120026 105.038803,69.339073 
	C106.109352,69.626785 107.226158,70.251259 108.661133,70.947197 
	C108.806419,71.864700 108.633530,72.710747 108.220947,73.782600 
z"/>
<path fill="#2E231D" opacity="1.000000" stroke="none" 
	d="
M108.897087,75.785385 
	C108.697411,75.797920 108.361603,75.609230 108.012802,75.205368 
	C108.297020,75.132446 108.550728,75.330437 108.897087,75.785385 
z"/>
<path fill="#463329" opacity="1.000000" stroke="none" 
	d="
M73.072769,29.975325 
	C74.820549,30.010881 76.568314,30.046436 79.005157,30.074965 
	C82.466965,29.703938 85.239716,29.339937 88.012459,28.975937 
	C88.012459,28.975939 88.506126,28.993692 88.938980,29.208263 
	C90.249222,29.282011 91.126617,29.141190 92.004005,29.000366 
	C92.446251,29.000624 92.888489,29.000883 93.662292,29.000992 
	C93.995804,29.445126 93.997765,29.889412 93.775513,30.882172 
	C94.028893,32.288910 94.506500,33.147179 94.984100,34.005444 
	C94.984100,34.005444 94.979408,34.498108 94.721016,34.955925 
	C93.308922,35.942242 92.155220,36.470737 90.792114,36.816669 
	C90.246613,36.104069 89.910530,35.574028 89.654015,35.169479 
	C85.638252,37.838871 86.744713,41.230652 87.985237,44.852928 
	C88.408943,46.090111 87.749023,47.698395 87.318657,49.144310 
	C86.703712,49.095379 86.354324,49.039257 86.002190,48.992859 
	C85.999451,49.002583 86.018379,48.994358 85.960800,48.647095 
	C85.279358,46.857536 84.655495,45.415237 84.015823,43.986698 
	C84.000031,44.000458 84.037163,43.980537 84.040024,43.677048 
	C83.708557,42.903034 83.374237,42.432507 83.019333,41.979652 
	C82.998749,41.997322 83.048943,41.977661 83.057831,41.670868 
	C82.755722,40.867489 82.444725,40.370899 82.100433,39.910805 
	C82.067146,39.947304 82.165131,39.934689 82.165298,39.595058 
	C81.857307,38.664886 81.549156,38.074345 81.250641,37.350601 
	C81.260277,37.217400 81.049355,37.053528 81.060295,36.717186 
	C80.696411,35.618652 80.321587,34.856453 79.967606,34.063049 
	C79.988449,34.031841 79.914040,34.041695 79.866127,33.748966 
	C79.358879,33.095234 78.899536,32.734230 78.440201,32.373226 
	C78.271034,32.908649 78.101860,33.444073 77.746948,34.265583 
	C76.653320,36.364399 75.745445,38.177132 74.477463,39.989059 
	C70.666977,39.838184 69.560753,38.238220 71.272102,34.823025 
	C71.691040,34.043602 71.889626,33.472984 72.318481,32.681953 
	C72.723427,31.632803 72.898102,30.804064 73.072769,29.975325 
z"/>
<path fill="#3A2920" opacity="1.000000" stroke="none" 
	d="
M91.001526,36.999237 
	C92.155220,36.470737 93.308922,35.942242 94.720039,35.202263 
	C95.551270,36.432270 96.125084,37.873756 96.842697,40.101669 
	C97.002228,46.524509 97.017960,52.160931 96.759659,57.897987 
	C96.285004,58.328671 96.084381,58.658722 95.544266,59.089828 
	C93.618187,60.157608 92.031601,61.124332 90.409653,61.819244 
	C90.400238,61.183300 90.426186,60.819172 90.612534,59.990540 
	C90.701385,58.879185 90.629852,58.232334 90.548309,57.298248 
	C90.515259,56.437370 90.492218,55.863728 90.812225,54.999924 
	C91.104034,48.806255 91.052780,42.902744 91.001526,36.999237 
M95.489792,55.543903 
	C95.489792,55.543903 95.463127,55.485001 95.489792,55.543903 
z"/>
<path fill="#1E1612" opacity="1.000000" stroke="none" 
	d="
M97.033691,57.797352 
	C97.017960,52.160931 97.002228,46.524509 96.988297,40.413414 
	C97.979973,43.357899 98.969849,46.777058 99.972137,50.589561 
	C99.315201,53.092018 98.645836,55.201122 97.707214,57.703239 
	C97.303200,57.996620 97.168449,57.896988 97.033691,57.797352 
z"/>
<path fill="#3A3433" opacity="1.000000" stroke="none" 
	d="
M99.011307,36.379765 
	C100.295807,38.108410 101.591003,40.215961 102.920197,42.682541 
	C101.643463,40.947273 100.332733,38.852970 99.011307,36.379765 
z"/>
<path fill="#3B302C" opacity="1.000000" stroke="none" 
	d="
M94.983253,33.672199 
	C94.506500,33.147179 94.028893,32.288910 93.775955,31.215397 
	C94.327881,31.779751 94.655144,32.559353 94.983253,33.672199 
z"/>
<path fill="#3B302C" opacity="1.000000" stroke="none" 
	d="
M97.073517,33.286392 
	C97.640236,33.447681 98.257378,33.920124 98.925674,34.702827 
	C98.359192,34.541241 97.741562,34.069393 97.073517,33.286392 
z"/>
<path fill="#363232" opacity="1.000000" stroke="none" 
	d="
M24.070650,69.466217 
	C23.996517,70.665428 23.893373,72.216568 23.468853,73.839432 
	C23.445530,72.546806 23.743586,71.182480 24.070650,69.466217 
z"/>
<path fill="#4C3D35" opacity="1.000000" stroke="none" 
	d="
M91.971619,28.712416 
	C91.126617,29.141190 90.249222,29.282011 89.185875,29.215431 
	C89.507057,28.422768 90.014198,27.837503 90.788544,27.122356 
	C91.350227,27.469803 91.644730,27.947132 91.971619,28.712416 
z"/>
<path fill="#4C3D35" opacity="1.000000" stroke="none" 
	d="
M87.969452,28.651966 
	C85.239716,29.339937 82.466965,29.703938 79.351425,30.023193 
	C79.009354,29.548309 79.010071,29.118166 79.015114,28.366051 
	C80.797470,26.736940 82.575493,25.429800 84.686600,24.057890 
	C85.019691,23.993120 84.997902,24.000463 85.124512,24.203316 
	C85.459488,24.672695 85.719200,24.872477 86.030266,25.005510 
	C86.662323,26.113005 87.294380,27.220501 87.969452,28.651966 
z"/>
<path fill="#3B2E28" opacity="1.000000" stroke="none" 
	d="
M85.904480,24.790979 
	C85.719200,24.872477 85.459488,24.672695 85.123337,24.193817 
	C85.314728,24.103283 85.575775,24.301611 85.904480,24.790979 
z"/>
<path fill="#262020" opacity="1.000000" stroke="none" 
	d="
M37.582481,31.079880 
	C38.210762,32.360310 39.073734,33.946697 38.675411,35.095917 
	C36.859634,40.334694 34.689419,45.450626 32.338451,50.803207 
	C31.723959,50.868881 31.467825,50.675568 31.134357,50.209564 
	C33.083328,43.730419 35.159828,37.457470 37.582481,31.079880 
z"/>
<path fill="#2B201C" opacity="1.000000" stroke="none" 
	d="
M63.808125,9.789639 
	C63.675770,12.055511 63.342129,14.097151 62.977531,16.520859 
	C62.946571,16.902925 62.935295,16.938679 62.600594,17.035690 
	C61.838692,18.083918 61.411488,19.035135 61.020554,20.330345 
	C61.384365,21.774942 61.711914,22.875551 62.026718,24.354189 
	C62.009171,25.488050 62.004372,26.243881 61.894363,27.046169 
	C61.789154,27.092625 61.772858,27.371593 61.772858,27.371593 
	C61.772858,27.371593 62.000309,27.000381 62.257294,26.888124 
	C63.010681,26.514956 63.507080,26.254044 64.290680,26.037704 
	C65.041161,26.404041 65.504425,26.725805 66.035873,27.349998 
	C66.730972,28.108833 67.357887,28.565241 68.022873,29.289009 
	C68.357811,31.360014 68.654671,33.163658 68.825104,35.166847 
	C68.510452,35.626072 68.275436,35.832443 67.657204,36.043144 
	C65.204514,38.035969 63.088219,39.971161 60.645439,41.934067 
	C59.882599,41.981499 59.446239,42.001217 59.057636,41.656410 
	C60.406654,38.271858 59.490524,36.307251 56.838642,34.242634 
	C53.879719,31.938969 51.582291,28.785646 49.177605,25.700836 
	C51.463009,23.727766 55.126469,22.247496 55.360100,20.345846 
	C55.909492,15.874065 58.139023,12.903739 61.001320,9.999413 
	C61.869823,9.854744 62.738331,9.710075 63.808125,9.789639 
z"/>
<path fill="#231B19" opacity="1.000000" stroke="none" 
	d="
M60.613178,10.001821 
	C58.139023,12.903739 55.909492,15.874065 55.360100,20.345846 
	C55.126469,22.247496 51.463009,23.727766 48.844711,25.700363 
	C47.887222,26.000864 47.443275,26.000538 46.999329,26.000210 
	C48.991421,21.584223 50.983517,17.168236 52.982826,12.388023 
	C55.401711,11.350608 57.813374,10.677419 60.613178,10.001821 
z"/>
<path fill="#211814" opacity="1.000000" stroke="none" 
	d="
M46.778419,26.264240 
	C47.443275,26.000538 47.887222,26.000864 48.664059,26.001663 
	C51.582291,28.785646 53.879719,31.938969 56.838642,34.242634 
	C59.490524,36.307251 60.406654,38.271858 58.827415,41.668701 
	C58.549442,42.045513 58.088673,42.055569 57.761154,42.073235 
	C56.621475,42.726593 55.809315,43.362282 54.717499,44.154255 
	C53.959866,45.215458 53.481888,46.120384 52.787941,47.229439 
	C51.748344,47.969223 50.924713,48.504875 50.101082,49.040527 
	C47.277981,49.404011 44.454880,49.767490 41.932831,50.092213 
	C40.535233,51.713760 39.133278,53.340366 37.366173,54.984337 
	C37.729225,48.664959 38.844311,42.596500 44.181431,38.099152 
	C47.814396,35.037815 47.132015,30.674410 46.778419,26.264240 
z"/>
<path fill="#221B19" opacity="1.000000" stroke="none" 
	d="
M16.227711,99.260300 
	C17.802776,97.433365 19.612204,95.871841 21.710030,94.153458 
	C22.443737,93.998116 22.889046,93.999649 23.668369,94.001968 
	C25.013525,95.505936 26.254637,98.417183 27.000372,98.295387 
	C34.806076,97.020493 30.871628,101.367615 30.015882,104.611252 
	C29.996758,104.984398 29.960835,105.402542 29.967037,105.611214 
	C29.209759,105.811661 28.446280,105.803444 27.301579,105.765152 
	C25.911690,103.771812 24.903021,101.808540 24.269375,100.575218 
	C21.540609,100.208397 19.001339,99.867050 16.227711,99.260300 
z"/>
<path fill="#F5CEB2" opacity="1.000000" stroke="none" 
	d="
M57.943501,58.552589 
	C57.943501,58.552589 57.905231,58.249725 58.215919,58.124214 
	C58.526608,57.998703 58.989925,58.013783 59.042671,58.119781 
	C59.095417,58.225780 59.392513,58.233143 59.392513,58.233143 
	C59.392513,58.233143 59.014286,57.989288 59.004578,57.716377 
	C58.979729,57.262043 58.964581,57.080616 58.949429,56.899193 
	C58.949429,56.899193 59.019192,56.458652 59.453102,56.172653 
	C62.866283,54.143085 67.960869,56.259377 69.080902,50.638123 
	C69.815361,49.911057 70.433891,49.457535 71.464813,49.002342 
	C74.072777,49.198574 77.028404,48.107952 76.795090,52.295982 
	C73.606674,55.277870 73.322876,56.366005 75.535706,57.565788 
	C75.920204,57.962708 76.048309,58.285671 76.111290,58.965328 
	C76.719887,60.539474 77.393600,61.756931 78.055031,63.393097 
	C78.131355,70.726982 78.662727,71.277122 87.122253,73.529938 
	C87.049828,74.220787 86.997963,74.615128 86.692444,75.224022 
	C84.293106,77.716873 82.181671,80.028847 79.988663,82.260658 
	C78.708237,83.563728 77.297424,84.738686 75.678947,86.072838 
	C74.948929,86.749557 74.485229,87.324722 73.621185,87.882568 
	C70.220711,88.810257 67.220604,89.755272 64.118706,90.377502 
	C60.785419,87.930656 57.553921,85.806595 54.322418,83.682533 
	C53.618008,82.996849 52.913589,82.311172 51.963535,81.118446 
	C51.417778,80.425888 51.117657,80.240387 50.817535,80.054886 
	C50.479179,80.057312 50.222824,79.913528 49.905716,79.152267 
	C49.497074,78.457436 49.231182,78.233879 48.965290,78.010323 
	C48.607361,77.979065 48.348961,77.802307 48.141689,76.875137 
	C47.966221,75.535011 47.839153,74.799797 47.712082,74.064575 
	C52.407368,71.560043 57.020229,68.988815 57.109497,61.928017 
	C57.486977,60.330750 57.715240,59.441669 57.943501,58.552589 
M67.330467,77.018234 
	C65.518715,77.018234 63.706959,77.018234 60.778362,77.018234 
	C65.778008,81.072075 69.114700,80.603485 73.163200,76.179863 
	C71.303978,76.484169 69.719498,76.743507 67.330467,77.018234 
z"/>
<path fill="#CB8869" opacity="1.000000" stroke="none" 
	d="
M72.166336,92.110588 
	C71.882515,92.589203 71.598686,93.067818 71.223618,93.809235 
	C69.982910,94.971222 68.833443,95.870392 67.406860,96.911308 
	C64.052261,98.240074 60.973293,99.423271 57.897808,100.615456 
	C55.863068,101.404205 53.833317,102.205841 51.403603,103.002655 
	C51.351799,101.938393 51.697727,100.873177 52.045586,99.469376 
	C52.201794,98.832840 52.356068,98.534889 53.035732,98.107224 
	C54.066540,97.668503 54.571960,97.359497 55.402634,96.985886 
	C57.152775,95.270370 58.577663,93.619461 60.327339,91.989319 
	C61.085304,92.035316 61.518490,92.060539 62.059502,92.420258 
	C63.611202,92.912956 65.072945,93.290993 66.494553,93.175385 
	C68.401398,93.020317 70.277206,92.483505 72.166336,92.110588 
z"/>
<path fill="#A1664C" opacity="1.000000" stroke="none" 
	d="
M61.951675,92.085754 
	C61.518490,92.060539 61.085304,92.035316 60.163239,91.705193 
	C58.492161,91.690231 56.720543,91.611504 56.257732,92.351418 
	C55.442875,93.654190 55.427505,95.457039 55.077377,97.050491 
	C54.571960,97.359497 54.066540,97.668503 53.254913,97.975571 
	C53.376091,93.530403 53.803471,89.087158 54.276634,84.163223 
	C57.553921,85.806595 60.785419,87.930656 63.906239,90.648598 
	C63.180931,91.523582 62.566303,91.804672 61.951675,92.085754 
z"/>
<path fill="#C3886C" opacity="1.000000" stroke="none" 
	d="
M47.494522,73.929565 
	C47.839153,74.799797 47.966221,75.535011 48.065281,76.643478 
	C47.337807,75.896744 46.638344,74.776764 45.954460,73.315216 
	C46.405685,73.247292 46.841328,73.520927 47.494522,73.929565 
z"/>
<path fill="#F6C1A3" opacity="1.000000" stroke="none" 
	d="
M49.015877,78.285049 
	C49.231182,78.233879 49.497074,78.457436 49.856850,78.928299 
	C49.655975,78.970337 49.361221,78.765060 49.015877,78.285049 
z"/>
<path fill="#F6C1A3" opacity="1.000000" stroke="none" 
	d="
M50.909874,80.320786 
	C51.117657,80.240387 51.417778,80.425888 51.849087,80.845772 
	C51.654251,80.915665 51.328232,80.751183 50.909874,80.320786 
z"/>
<path fill="#A9735A" opacity="1.000000" stroke="none" 
	d="
M49.960625,49.321030 
	C50.924713,48.504875 51.748344,47.969223 53.139671,47.221718 
	C54.801685,46.684902 55.895996,46.359943 56.991776,46.328724 
	C57.353397,47.423630 57.713558,48.224800 57.904518,49.350426 
	C57.464245,50.837566 57.193161,52.000244 56.922081,53.162922 
	C53.846157,52.862831 50.770237,52.562737 47.383049,52.132607 
	C47.987911,51.202225 48.904041,50.401878 49.960625,49.321030 
z"/>
<path fill="#B5BAAE" opacity="1.000000" stroke="none" 
	d="
M57.623280,58.559639 
	C57.715240,59.441669 57.486977,60.330750 57.091129,61.519794 
	C53.486954,63.074657 50.325890,62.577923 47.235962,60.037262 
	C47.444981,58.309929 47.858604,56.873451 48.082893,56.094524 
	C51.610981,57.040493 54.457020,57.803589 57.623280,58.559639 
z"/>
<path fill="#ECBFA1" opacity="1.000000" stroke="none" 
	d="
M57.089603,53.411861 
	C57.193161,52.000244 57.464245,50.837566 58.170723,49.170670 
	C60.067970,47.109879 61.529819,45.553303 63.279995,43.858276 
	C64.714211,42.485634 65.860100,41.251446 67.340874,40.082405 
	C67.610535,41.871132 67.545311,43.594707 67.227966,45.558395 
	C66.036133,47.708580 65.096405,49.618652 63.954990,51.938683 
	C65.993988,51.520702 67.479469,51.216187 68.964958,50.911671 
	C67.960869,56.259377 62.866283,54.143085 59.514915,55.958374 
	C58.514252,55.240334 57.885689,54.450565 57.089603,53.411861 
z"/>
<path fill="#ECBFA1" opacity="1.000000" stroke="none" 
	d="
M58.687996,56.976669 
	C58.964581,57.080616 58.979729,57.262043 58.997597,57.721710 
	C59.000320,57.999950 58.989925,58.013783 58.989925,58.013783 
	C58.989925,58.013783 58.526608,57.998703 58.295815,57.994160 
	C58.185535,57.677795 58.306046,57.365971 58.687996,56.976669 
z"/>
<path fill="#E6B696" opacity="1.000000" stroke="none" 
	d="
M68.988312,111.971077 
	C68.981255,111.948219 69.357307,112.199989 69.357307,112.199989 
	C69.357307,112.199989 69.069145,112.188805 69.009293,112.085327 
	C68.949448,111.981850 68.995377,111.993935 68.988312,111.971077 
z"/>
<path fill="#271B16" opacity="1.000000" stroke="none" 
	d="
M75.945267,85.971283 
	C77.297424,84.738686 78.708237,83.563728 79.988663,82.260658 
	C82.181671,80.028847 84.293106,77.716873 87.033768,75.255432 
	C88.084785,75.071991 88.540840,75.071671 89.015259,75.432068 
	C89.357666,77.186478 89.681702,78.580154 90.006149,80.241081 
	C90.007996,80.686470 90.009445,80.864624 90.010880,81.042786 
	C89.679558,82.450905 89.348236,83.859016 88.653961,85.732147 
	C87.533821,88.804535 86.776627,91.411911 86.015388,94.261734 
	C86.011353,94.504181 86.010590,94.989136 86.006546,95.325394 
	C86.005394,96.110107 86.008286,96.558548 86.011185,97.006996 
	C86.011185,97.006996 85.999763,97.001640 85.762970,96.784439 
	C84.929710,95.895691 84.333252,95.224136 83.736794,94.552589 
	C83.123993,96.223122 82.511200,97.893661 81.898407,99.564194 
	C80.249741,98.404266 78.601074,97.244347 76.904160,95.504990 
	C76.810478,94.582901 76.660271,94.294914 76.405296,94.061600 
	C76.284531,92.655869 76.163765,91.250130 76.269913,89.219360 
	C76.312973,87.719971 76.129120,86.845627 75.945267,85.971283 
z"/>
<path fill="#BA785B" opacity="1.000000" stroke="none" 
	d="
M62.059502,92.420265 
	C62.566303,91.804672 63.180931,91.523582 64.008026,90.971390 
	C67.220604,89.755272 70.220711,88.810257 73.883438,87.954086 
	C74.719513,88.346886 74.892990,88.650856 75.066467,88.954826 
	C74.264481,89.883301 73.462502,90.811783 72.413437,91.925430 
	C70.277206,92.483505 68.401398,93.020317 66.494553,93.175385 
	C65.072945,93.290993 63.611202,92.912956 62.059502,92.420265 
z"/>
<path fill="#35251E" opacity="1.000000" stroke="none" 
	d="
M82.112045,99.764801 
	C82.511200,97.893661 83.123993,96.223122 83.736794,94.552589 
	C84.333252,95.224136 84.929710,95.895691 85.766342,96.791168 
	C85.984825,99.586685 85.963135,102.158279 85.615692,104.855637 
	C84.301849,103.309410 83.313766,101.637405 82.112045,99.764801 
z"/>
<path fill="#35251E" opacity="1.000000" stroke="none" 
	d="
M75.307220,88.978653 
	C74.892990,88.650856 74.719513,88.346886 74.283791,87.971405 
	C74.485229,87.324722 74.948929,86.749557 75.678947,86.072838 
	C76.129120,86.845627 76.312973,87.719971 76.264282,88.793625 
	C76.031731,88.992943 75.547966,89.002480 75.307220,88.978653 
z"/>
<path fill="#35251E" opacity="1.000000" stroke="none" 
	d="
M76.348518,94.316711 
	C76.660271,94.294914 76.810478,94.582901 76.850189,95.175156 
	C76.660217,95.140442 76.475983,94.856140 76.348518,94.316711 
z"/>
<path fill="#3E3836" opacity="1.000000" stroke="none" 
	d="
M111.004272,91.996918 
	C111.162773,90.702538 111.321266,89.408165 111.767921,88.057053 
	C112.706459,89.780281 113.356834,91.560234 113.732971,93.533295 
	C112.640587,93.149910 111.822426,92.573418 111.004272,91.996918 
z"/>
<path fill="#3E3836" opacity="1.000000" stroke="none" 
	d="
M114.831741,95.640106 
	C114.497147,96.477257 114.049416,97.142044 113.195763,97.658318 
	C112.524742,96.678947 112.259644,95.848091 112.336365,95.015015 
	C113.134506,95.005882 113.590836,94.998985 114.047165,94.992081 
	C114.306915,95.099953 114.530724,95.258507 114.831741,95.640106 
z"/>
<path fill="#3A2E28" opacity="1.000000" stroke="none" 
	d="
M114.030884,94.745895 
	C113.590836,94.998985 113.134506,95.005882 112.102242,94.782516 
	C111.348404,93.703247 111.170502,92.854256 110.992599,92.005264 
	C110.992599,92.005264 110.998985,92.000748 111.001633,91.998833 
	C111.822426,92.573418 112.640587,93.149910 113.725250,93.866592 
	C113.991768,94.006790 114.014610,94.499710 114.030884,94.745895 
z"/>
<path fill="#463830" opacity="1.000000" stroke="none" 
	d="
M110.698685,91.843811 
	C111.170502,92.854256 111.348404,93.703247 111.760422,94.784737 
	C112.259644,95.848091 112.524742,96.678947 112.930267,97.811531 
	C113.070686,98.113258 113.068947,98.519043 113.093445,98.720230 
	C112.298050,99.255051 111.478149,99.588676 110.030060,99.802933 
	C107.263390,95.791718 105.124908,91.899895 102.986420,88.008072 
	C104.244797,87.881706 105.838531,87.218040 106.687347,87.747841 
	C108.168182,88.672127 109.190353,90.331238 110.698685,91.843811 
z"/>
<path fill="#2A211D" opacity="1.000000" stroke="none" 
	d="
M102.735527,87.748344 
	C105.124908,91.899895 107.263390,95.791718 109.700714,99.842690 
	C110.011475,100.456947 110.023392,100.912056 109.742615,101.730240 
	C109.273094,102.161118 109.096252,102.228928 108.507568,102.218384 
	C106.743736,101.896027 105.391731,101.652008 104.039734,101.407990 
	C101.210213,101.275291 98.380699,101.142601 95.280777,101.265976 
	C94.839348,101.430634 94.668327,101.339218 94.247604,100.678696 
	C94.916832,96.880974 94.950562,92.835793 96.982094,90.633484 
	C99.439209,87.969810 99.197678,86.309464 97.562057,83.914352 
	C96.120644,81.803619 95.480865,79.778343 98.019905,77.986084 
	C99.508148,81.153595 100.996391,84.321106 102.735527,87.748344 
z"/>
<path fill="#A1AD9F" opacity="1.000000" stroke="none" 
	d="
M108.919403,102.296730 
	C109.096252,102.228928 109.273094,102.161118 109.733200,102.071594 
	C110.365631,102.384254 110.714806,102.718628 111.183990,103.254288 
	C110.811249,103.619560 110.318489,103.783531 109.406479,103.684967 
	C108.964622,103.047188 108.942009,102.671959 108.919403,102.296730 
z"/>
<path fill="#C8CBB8" opacity="1.000000" stroke="none" 
	d="
M108.507568,102.218384 
	C108.942009,102.671959 108.964622,103.047188 109.014297,103.703293 
	C107.663101,105.589622 104.190331,106.646202 107.795731,109.766510 
	C107.996872,110.028053 107.996231,110.506142 107.996437,110.744980 
	C106.204842,111.543091 104.413048,112.102356 102.308868,112.835785 
	C101.816788,111.824600 101.637077,110.639259 101.200775,109.198601 
	C101.921234,106.645653 102.898300,104.348015 103.957550,101.729187 
	C105.391731,101.652008 106.743736,101.896027 108.507568,102.218384 
z"/>
<path fill="#221915" opacity="1.000000" stroke="none" 
	d="
M98.034988,77.576874 
	C95.480865,79.778343 96.120644,81.803619 97.562057,83.914352 
	C99.197678,86.309464 99.439209,87.969810 96.982094,90.633484 
	C94.950562,92.835793 94.916832,96.880974 93.997635,100.529938 
	C93.559227,100.988297 93.121094,101.026314 92.353012,101.076775 
	C92.316216,96.821434 92.910149,92.544670 92.783012,88.289452 
	C92.713387,85.958755 91.425987,83.664436 90.349304,81.198250 
	C90.009445,80.864624 90.007996,80.686470 90.313072,80.059280 
	C91.410080,77.092560 92.200562,74.574883 93.345428,72.072670 
	C95.394608,70.225891 97.089401,68.363647 98.784195,66.501404 
	C98.818077,66.750885 98.851952,67.000359 98.941299,67.623337 
	C98.681198,71.053780 98.365631,74.110718 98.034988,77.576874 
z"/>
<path fill="#35251E" opacity="1.000000" stroke="none" 
	d="
M86.019424,94.019295 
	C86.776627,91.411911 87.533821,88.804535 88.643883,86.096764 
	C88.996307,88.428528 89.238091,90.895180 88.898628,93.279053 
	C88.714355,94.573158 87.540894,95.726395 86.412399,96.975082 
	C86.008286,96.558548 86.005394,96.110107 86.141098,95.230209 
	C86.466660,94.470741 86.379906,94.210922 86.019424,94.019295 
z"/>
<path fill="#2B201C" opacity="1.000000" stroke="none" 
	d="
M73.058655,29.732128 
	C72.898102,30.804064 72.723427,31.632803 72.291405,32.460732 
	C72.034058,32.459919 71.984505,32.015446 71.981064,31.670408 
	C71.960793,30.865088 71.943962,30.404806 71.952782,29.716564 
	C71.978432,29.488604 72.033310,29.033102 72.033310,29.033102 
	C72.200493,29.026548 72.367668,29.019995 72.786171,29.007607 
	C73.037491,29.001774 73.044548,29.488932 73.058655,29.732128 
z"/>
<path fill="#4A3C35" opacity="1.000000" stroke="none" 
	d="
M72.161507,28.714088 
	C72.033310,29.033102 71.978432,29.488604 71.669861,29.592142 
	C70.241623,29.131338 69.121956,28.566996 67.810074,27.780773 
	C67.067795,27.388451 66.517746,27.218010 65.967697,27.047569 
	C65.504425,26.725805 65.041161,26.404041 64.157059,25.782753 
	C63.170639,24.980873 62.605049,24.478518 62.039459,23.976160 
	C61.711914,22.875551 61.384365,21.774942 61.269257,20.215851 
	C61.949295,19.476322 62.416901,19.195278 62.884502,18.914234 
	C62.884502,18.914234 63.019695,19.031555 63.063675,19.399080 
	C63.369778,20.300066 63.631901,20.833529 63.894024,21.366989 
	C64.261032,20.579666 64.628029,19.792343 64.995033,19.005020 
	C64.995033,19.005020 64.999512,19.000433 65.001816,18.998959 
	C66.404289,20.009644 67.804443,21.021803 69.566422,22.055210 
	C70.715385,24.182665 71.502548,26.288870 72.161507,28.714088 
z"/>
<path fill="#3B2E28" opacity="1.000000" stroke="none" 
	d="
M64.686386,19.020195 
	C64.628029,19.792343 64.261032,20.579666 63.894024,21.366989 
	C63.631901,20.833529 63.369778,20.300066 63.130554,19.458557 
	C63.561550,19.112127 63.969650,19.073748 64.686386,19.020195 
z"/>
<path fill="#3B2E28" opacity="1.000000" stroke="none" 
	d="
M62.908901,18.590033 
	C62.416901,19.195278 61.949295,19.476322 61.232986,19.871861 
	C61.411488,19.035135 61.838692,18.083918 62.587555,17.047874 
	C62.917244,17.397310 62.925274,17.831570 62.908901,18.590033 
z"/>
<path fill="#CF9174" opacity="1.000000" stroke="none" 
	d="
M98.775505,66.119644 
	C97.089401,68.363647 95.394608,70.225891 93.344582,71.666779 
	C93.954147,67.159882 94.918953,63.074326 95.883759,58.988773 
	C96.084381,58.658722 96.285004,58.328671 96.759659,57.897987 
	C97.168449,57.896988 97.303200,57.996620 97.686272,58.134392 
	C98.212006,60.694309 98.489410,63.216095 98.775505,66.119644 
z"/>
<path fill="#ECC7AC" opacity="1.000000" stroke="none" 
	d="
M77.023445,52.036324 
	C77.028404,48.107952 74.072777,49.198574 71.386307,48.743980 
	C70.888176,48.307396 70.880943,48.127518 71.205185,47.838020 
	C72.636963,45.148888 73.737267,42.569374 74.837563,39.989861 
	C75.745445,38.177132 76.653320,36.364399 78.077469,34.276817 
	C79.033836,34.015205 79.473938,34.028450 79.914040,34.041695 
	C79.914040,34.041695 79.988449,34.031841 79.948257,34.397369 
	C80.288490,35.526440 80.668922,36.289982 81.049355,37.053528 
	C81.049355,37.053528 81.260277,37.217400 81.204605,37.707169 
	C81.487663,38.776192 81.826393,39.355442 82.165131,39.934689 
	C82.165131,39.934689 82.067146,39.947304 82.072083,40.222019 
	C82.400993,40.990379 82.724968,41.484020 83.048943,41.977661 
	C83.048943,41.977661 82.998749,41.997322 83.008286,42.284966 
	C83.357613,43.041916 83.697388,43.511227 84.037163,43.980537 
	C84.037163,43.980537 84.000031,44.000458 83.982758,44.379074 
	C84.649780,46.169914 85.334076,47.582138 86.018379,48.994358 
	C86.018379,48.994358 85.999451,49.002583 86.044609,49.332458 
	C86.232918,50.551472 86.376076,51.440617 86.471977,52.036324 
	C83.121803,52.036324 80.072624,52.036324 77.023445,52.036324 
M81.737328,46.963810 
	C82.045647,46.933167 82.353973,46.902523 82.662292,46.871883 
	C82.333855,46.772362 82.005417,46.672836 81.737328,46.963810 
M74.462463,47.491047 
	C74.462463,47.491047 74.514519,47.468048 74.462463,47.491047 
z"/>
<path fill="#DDA98A" opacity="1.000000" stroke="none" 
	d="
M76.795090,52.295982 
	C80.072624,52.036324 83.121803,52.036324 86.471977,52.036324 
	C86.376076,51.440617 86.232918,50.551472 86.047348,49.322731 
	C86.354324,49.039257 86.703712,49.095379 87.429550,49.473026 
	C88.693718,51.626396 89.581444,53.458241 90.469170,55.290085 
	C90.492218,55.863728 90.515259,56.437370 90.285339,57.366890 
	C89.948189,58.501225 89.864021,59.279675 89.445877,60.124401 
	C87.067368,61.084301 85.022827,61.977928 83.122612,62.638947 
	C83.510803,61.440941 83.754669,60.475544 84.005234,59.163116 
	C84.510017,57.616066 85.008102,56.416050 85.823151,54.452393 
	C81.833366,55.856670 77.488266,52.344589 75.279305,57.491833 
	C73.322876,56.366005 73.606674,55.277870 76.795090,52.295982 
z"/>
<path fill="#2F211A" opacity="1.000000" stroke="none" 
	d="
M90.812225,54.999924 
	C89.581444,53.458241 88.693718,51.626396 87.695099,49.465836 
	C87.749023,47.698395 88.408943,46.090111 87.985237,44.852928 
	C86.744713,41.230652 85.638252,37.838871 89.654015,35.169479 
	C89.910530,35.574028 90.246613,36.104069 90.792114,36.816673 
	C91.052780,42.902744 91.104034,48.806255 90.812225,54.999924 
z"/>
<path fill="#4F392E" opacity="1.000000" stroke="none" 
	d="
M74.477463,39.989059 
	C73.737267,42.569374 72.636963,45.148888 70.818909,47.806427 
	C69.227463,47.029068 68.353775,46.173679 67.480087,45.318287 
	C67.545311,43.594707 67.610535,41.871132 67.374542,39.736038 
	C67.380081,38.211521 67.686844,37.098515 67.993599,35.985508 
	C68.275436,35.832443 68.510452,35.626072 69.157516,35.169079 
	C70.057709,34.961140 70.499039,34.950508 70.967499,34.963737 
	C70.994629,34.987595 71.051758,35.031834 71.051758,35.031834 
	C69.560753,38.238220 70.666977,39.838184 74.477463,39.989059 
z"/>
<path fill="#DDA98A" opacity="1.000000" stroke="none" 
	d="
M85.960800,48.647095 
	C85.334076,47.582138 84.649780,46.169914 83.998550,44.365314 
	C84.655495,45.415237 85.279358,46.857536 85.960800,48.647095 
z"/>
<path fill="#DDA98A" opacity="1.000000" stroke="none" 
	d="
M79.866127,33.748966 
	C79.473938,34.028450 79.033836,34.015205 78.263214,33.990730 
	C78.101860,33.444073 78.271034,32.908649 78.440201,32.373226 
	C78.899536,32.734230 79.358879,33.095234 79.866127,33.748966 
z"/>
<path fill="#4F392E" opacity="1.000000" stroke="none" 
	d="
M71.984505,32.015446 
	C71.984505,32.015446 72.034058,32.459919 72.061134,32.681145 
	C71.889626,33.472984 71.691040,34.043602 71.272102,34.823025 
	C71.051758,35.031834 70.994629,34.987595 70.989700,34.639679 
	C71.318016,33.532990 71.651260,32.774216 71.984505,32.015446 
z"/>
<path fill="#DDA98A" opacity="1.000000" stroke="none" 
	d="
M81.060295,36.717186 
	C80.668922,36.289982 80.288490,35.526440 79.927414,34.428574 
	C80.321587,34.856453 80.696411,35.618652 81.060295,36.717186 
z"/>
<path fill="#DDA98A" opacity="1.000000" stroke="none" 
	d="
M84.040024,43.677048 
	C83.697388,43.511227 83.357613,43.041916 83.028870,42.267292 
	C83.374237,42.432507 83.708557,42.903034 84.040024,43.677048 
z"/>
<path fill="#DDA98A" opacity="1.000000" stroke="none" 
	d="
M83.057831,41.670868 
	C82.724968,41.484020 82.400993,40.990379 82.105377,40.185524 
	C82.444725,40.370899 82.755722,40.867489 83.057831,41.670868 
z"/>
<path fill="#DDA98A" opacity="1.000000" stroke="none" 
	d="
M82.165298,39.595058 
	C81.826393,39.355442 81.487663,38.776192 81.194962,37.840370 
	C81.549156,38.074345 81.857307,38.664886 82.165298,39.595058 
z"/>
<path fill="#ECB498" opacity="1.000000" stroke="none" 
	d="
M82.978287,62.871559 
	C85.022827,61.977928 87.067368,61.084301 89.604248,60.240280 
	C90.096588,60.289886 90.452141,60.455040 90.452141,60.455040 
	C90.426186,60.819172 90.400238,61.183300 90.270691,62.110695 
	C89.681328,64.373878 89.195564,66.073799 88.464462,67.966644 
	C87.860352,69.850853 87.501579,71.542145 87.142807,73.233429 
	C78.662727,71.277122 78.131355,70.726982 78.461861,63.410442 
	C80.246742,62.963242 81.612518,62.917404 82.978287,62.871559 
z"/>
<path fill="#4A3328" opacity="1.000000" stroke="none" 
	d="
M88.709808,67.773712 
	C89.195564,66.073799 89.681328,64.373878 90.306046,62.382511 
	C92.031601,61.124332 93.618187,60.157608 95.544266,59.089828 
	C94.918953,63.074326 93.954147,67.159882 92.990196,71.651321 
	C92.200562,74.574883 91.410080,77.092560 90.312668,79.792038 
	C89.681702,78.580154 89.357666,77.186478 89.159988,75.075485 
	C89.094162,72.163361 88.901978,69.968536 88.709808,67.773712 
z"/>
<path fill="#8A5641" opacity="1.000000" stroke="none" 
	d="
M90.612534,59.990540 
	C90.452141,60.455040 90.096588,60.289886 89.938217,60.174007 
	C89.864021,59.279675 89.948189,58.501225 90.295341,57.654125 
	C90.629852,58.232334 90.701385,58.879185 90.612534,59.990540 
z"/>
<path fill="#4A3328" opacity="1.000000" stroke="none" 
	d="
M95.476456,55.514450 
	C95.463127,55.485001 95.489792,55.543903 95.476456,55.514450 
z"/>
<path fill="#463329" opacity="1.000000" stroke="none" 
	d="
M67.657204,36.043144 
	C67.686844,37.098515 67.380081,38.211521 67.039658,39.670891 
	C65.860100,41.251446 64.714211,42.485634 62.966301,43.792397 
	C61.900158,43.212097 61.436039,42.559223 60.971920,41.906349 
	C63.088219,39.971161 65.204514,38.035969 67.657204,36.043144 
z"/>
<path fill="#4F392E" opacity="1.000000" stroke="none" 
	d="
M60.645439,41.934067 
	C61.436039,42.559223 61.900158,43.212097 62.677971,43.930851 
	C61.529819,45.553303 60.067970,47.109879 58.339920,48.846207 
	C57.713558,48.224800 57.353397,47.423630 57.107132,46.067924 
	C57.485416,45.009087 57.749809,44.504795 58.029503,43.676151 
	C58.059425,42.919724 58.074051,42.487648 58.088673,42.055569 
	C58.088673,42.055569 58.549442,42.045513 58.779663,42.033222 
	C59.446239,42.001217 59.882599,41.981499 60.645439,41.934067 
z"/>
<path fill="#463329" opacity="1.000000" stroke="none" 
	d="
M71.981064,31.670408 
	C71.651260,32.774216 71.318016,33.532990 70.962570,34.615818 
	C70.499039,34.950508 70.057709,34.961140 69.283958,34.969536 
	C68.654671,33.163658 68.357811,31.360014 68.029449,29.034174 
	C67.999390,28.342205 68.000839,28.172428 68.002296,28.002651 
	C69.121956,28.566996 70.241623,29.131338 71.644211,29.820103 
	C71.943962,30.404806 71.960793,30.865088 71.981064,31.670408 
z"/>
<path fill="#3B2E28" opacity="1.000000" stroke="none" 
	d="
M62.026714,24.354189 
	C62.605049,24.478518 63.170639,24.980873 63.869854,25.738182 
	C63.507080,26.254044 63.010681,26.514956 62.257141,26.887934 
	C62.000000,27.000000 61.999573,26.999714 61.999573,26.999714 
	C62.004372,26.243881 62.009171,25.488050 62.026714,24.354189 
z"/>
<path fill="#3B2E28" opacity="1.000000" stroke="none" 
	d="
M67.810074,27.780771 
	C68.000839,28.172428 67.999390,28.342205 67.991371,28.766815 
	C67.357887,28.565241 66.730972,28.108833 66.035873,27.349998 
	C66.517746,27.218010 67.067795,27.388451 67.810074,27.780771 
z"/>
<path fill="#3B2E28" opacity="1.000000" stroke="none" 
	d="
M62.000153,27.000191 
	C62.000309,27.000381 61.772858,27.371593 61.772858,27.371593 
	C61.772858,27.371593 61.789154,27.092625 61.894363,27.046169 
	C61.999573,26.999714 62.000000,27.000000 62.000153,27.000191 
z"/>
<path fill="#2D211B" opacity="1.000000" stroke="none" 
	d="
M58.014202,44.000500 
	C57.749809,44.504795 57.485416,45.009087 57.105667,45.774185 
	C55.895996,46.359943 54.801685,46.684902 53.355637,47.017586 
	C53.481888,46.120384 53.959866,45.215458 55.094521,44.155045 
	C56.505531,43.999874 57.259869,44.000187 58.014202,44.000500 
z"/>
<path fill="#2B201C" opacity="1.000000" stroke="none" 
	d="
M58.029503,43.676151 
	C57.259869,44.000187 56.505531,43.999874 55.374176,43.998764 
	C55.809315,43.362282 56.621475,42.726593 57.761154,42.073235 
	C58.074051,42.487648 58.059425,42.919724 58.029503,43.676151 
z"/>
<path fill="#414644" opacity="1.000000" stroke="none" 
	d="
M75.535706,57.565788 
	C77.488266,52.344589 81.833366,55.856670 85.823151,54.452393 
	C85.008102,56.416050 84.510017,57.616066 83.587921,59.206680 
	C80.834740,59.267727 78.505569,58.938183 76.176407,58.608635 
	C76.048309,58.285671 75.920204,57.962708 75.535706,57.565788 
z"/>
<path fill="#F1B99C" opacity="1.000000" stroke="none" 
	d="
M67.732742,77.010544 
	C69.719498,76.743507 71.303978,76.484169 73.163200,76.179863 
	C69.114700,80.603485 65.778008,81.072075 60.778362,77.018234 
	C63.706959,77.018234 65.518715,77.018234 67.732742,77.010544 
z"/>
<path fill="#97B8B1" opacity="1.000000" stroke="none" 
	d="
M76.111290,58.965324 
	C78.505569,58.938183 80.834740,59.267727 83.581223,59.553711 
	C83.754669,60.475544 83.510803,61.440941 83.122612,62.638947 
	C81.612518,62.917404 80.246742,62.963242 78.474144,62.991730 
	C77.393600,61.756931 76.719887,60.539474 76.111290,58.965324 
z"/>
<path fill="#654B3C" opacity="1.000000" stroke="none" 
	d="
M67.227974,45.558395 
	C68.353775,46.173679 69.227463,47.029068 70.487434,47.916046 
	C70.880943,48.127518 70.888176,48.307396 70.973915,48.745644 
	C70.433891,49.457535 69.815361,49.911057 69.080902,50.638123 
	C67.479469,51.216187 65.993988,51.520702 63.954990,51.938683 
	C65.096405,49.618652 66.036133,47.708580 67.227974,45.558395 
z"/>
<path fill="#8A5641" opacity="1.000000" stroke="none" 
	d="
M88.464462,67.966644 
	C88.901978,69.968536 89.094162,72.163361 89.141617,74.714767 
	C88.540840,75.071671 88.084785,75.071991 87.287415,75.040894 
	C86.997963,74.615128 87.049828,74.220787 87.122253,73.529938 
	C87.501579,71.542145 87.860352,69.850853 88.464462,67.966644 
z"/>
<path fill="#ECBFA1" opacity="1.000000" stroke="none" 
	d="
M59.007301,57.994621 
	C59.014286,57.989288 59.392513,58.233143 59.392513,58.233143 
	C59.392513,58.233143 59.095417,58.225780 59.042671,58.119781 
	C58.989925,58.013783 59.000320,57.999950 59.007301,57.994621 
z"/>
<path fill="#BA785B" opacity="1.000000" stroke="none" 
	d="
M55.402630,96.985886 
	C55.427505,95.457039 55.442875,93.654190 56.257732,92.351418 
	C56.720543,91.611504 58.492161,91.690231 59.838455,91.684418 
	C58.577663,93.619461 57.152775,95.270370 55.402630,96.985886 
z"/>
<path fill="#3D2C24" opacity="1.000000" stroke="none" 
	d="
M86.015388,94.261734 
	C86.379906,94.210922 86.466660,94.470741 86.145142,94.893951 
	C86.010590,94.989136 86.011353,94.504181 86.015388,94.261734 
z"/>
<path fill="#DDA98A" opacity="1.000000" stroke="none" 
	d="
M81.707153,46.768562 
	C82.005417,46.672836 82.333855,46.772362 82.662292,46.871880 
	C82.353973,46.902523 82.045647,46.933167 81.707153,46.768562 
z"/>
<path fill="#F5CEB2" opacity="1.000000" stroke="none" 
	d="
M74.488495,47.479546 
	C74.514519,47.468048 74.462463,47.491047 74.488495,47.479546 
z"/>
</svg>